<svg viewBox="0 0 1024 1024" fill="none" xmlns="http://www.w3.org/2000/svg">
  <path d="M512.5 448V320L256.5 576L256 704L512.5 448Z" fill="#D62828" />
  <path d="M576.5 256L640.5 192L640.25 320L576.125 384L576.5 256Z" fill="#D62828" />
  <path d="M768.5 320V448L640.25 320V192L768.5 320Z" fill="#971C1C" />
  <path d="M512.5 192V64L256.5 320L256 448L512.5 192Z" fill="#D62828" />
  <path d="M768.5 704V576L512.5 832L512 960L768.5 704Z" fill="#D62828" />
  <path d="M512.5 832V960L256.5 704L256 576L512.5 832Z" fill="#971C1C" />
  <path d="M768.5 448V320L512.5 576L512 704L768.5 448Z" fill="#D62828" />
  <path d="M512.5 576V704L256.5 448L256 320L512.5 576Z" fill="#971C1C" />
</svg>
