<?xml version="1.0" encoding="utf-8"?>
<!-- Generator: Adobe Illustrator 24.0.1, SVG Export Plug-In . SVG Version: 6.00 Build 0)  -->
<svg version="1.1" xmlns="http://www.w3.org/2000/svg" xmlns:xlink="http://www.w3.org/1999/xlink" x="0px" y="0px"
	 viewBox="0 0 500 500" style="enable-background:new 0 0 500 500;" xml:space="preserve">
<style type="text/css">
	.st0{fill:#E0E0E0;}
	.st1{fill:#FAFAFA;}
	.st2{fill:#FFFFFF;}
	.st3{fill:#EBEBEB;}
	.st4{display:none;}
	.st5{display:inline;}
	.st6{fill:#F5F5F5;}
	.st7{fill:#263238;}
	.st8{fill:#455A64;}
	.st9{fill:#FF725E;}
	.st10{fill:#AE7461;}
	.st11{fill:#6F4439;}
	.st12{opacity:0.3;}
	.st13{opacity:0.6;}
</style>
<g id="Background_Complete">
	<g>
		<g>
			<g>
				<g>
					<g>
						<g>
							<g>
								<g>
									<g>
										<g>
											<rect x="392.02" y="56.61" class="st0" width="69.07" height="72"/>
										</g>
									</g>
								</g>
							</g>
						</g>
					</g>
				</g>
			</g>
		</g>
		<g>
			<g>
				<g>
					<g>
						<g>
							<g>
								<g>
									<g>
										<g>
											<rect x="387.34" y="56.61" class="st1" width="69.07" height="72"/>
										</g>
									</g>
								</g>
							</g>
						</g>
					</g>
				</g>
			</g>
			<g>
				<g>
					<g>
						<g>
							<g>
								<g>
									<g>
										<g>
											<path class="st0" d="M456.43,128.63h-69.11V56.58h69.11V128.63z M387.36,128.59h69.03V56.63h-69.03V128.59z"/>
										</g>
									</g>
								</g>
							</g>
						</g>
					</g>
				</g>
			</g>
		</g>
		<g>
			<g>
				<g>
					<g>
						<g>
							<g>
								<g>
									<g>
										<g>
											<rect x="396.63" y="66.29" class="st2" width="50.5" height="52.64"/>
										</g>
									</g>
								</g>
							</g>
						</g>
					</g>
				</g>
			</g>
		</g>
		<g>
			<g>
				<g>
					<g>
						<g>
							<g>
								<g>
									<g>
										<g>
											<g>
												<path class="st0" d="M396.63,119.28c0.04,0.05-0.44,0.6-1.25,1.45c-0.81,0.85-1.94,2-3.21,3.25
													c-1.27,1.25-2.44,2.37-3.3,3.16c-0.86,0.79-1.42,1.26-1.46,1.22c-0.04-0.04,0.43-0.59,1.24-1.44
													c0.81-0.85,1.94-2.01,3.22-3.26c1.27-1.25,2.44-2.37,3.31-3.16C396.04,119.7,396.59,119.23,396.63,119.28z"/>
											</g>
										</g>
									</g>
								</g>
							</g>
						</g>
					</g>
				</g>
			</g>
		</g>
		<g>
			<g>
				<g>
					<g>
						<g>
							<g>
								<g>
									<g>
										<g>
											<g>
												<path class="st0" d="M447.13,119.15c0.05-0.04,0.6,0.44,1.45,1.25c0.85,0.81,2,1.94,3.25,3.21
													c1.25,1.27,2.37,2.44,3.16,3.3c0.79,0.86,1.26,1.42,1.22,1.46c-0.04,0.04-0.59-0.43-1.44-1.24
													c-0.85-0.81-2.01-1.94-3.26-3.22c-1.25-1.27-2.37-2.44-3.16-3.31C447.55,119.74,447.08,119.19,447.13,119.15z"/>
											</g>
										</g>
									</g>
								</g>
							</g>
						</g>
					</g>
				</g>
			</g>
		</g>
		<g>
			<g>
				<g>
					<g>
						<g>
							<g>
								<g>
									<g>
										<g>
											<g>
												<path class="st0" d="M446.99,66.43c-0.04-0.05,0.44-0.6,1.25-1.45c0.81-0.85,1.94-2,3.21-3.25
													c1.27-1.25,2.44-2.37,3.3-3.16c0.86-0.79,1.42-1.26,1.46-1.22c0.04,0.04-0.43,0.59-1.24,1.44
													c-0.81,0.85-1.94,2.01-3.22,3.26c-1.27,1.25-2.44,2.37-3.31,3.16C447.58,66.01,447.03,66.47,446.99,66.43z"/>
											</g>
										</g>
									</g>
								</g>
							</g>
						</g>
					</g>
				</g>
			</g>
		</g>
		<g>
			<g>
				<g>
					<g>
						<g>
							<g>
								<g>
									<g>
										<g>
											<g>
												<path class="st0" d="M396.49,66.55c-0.05,0.04-0.6-0.44-1.45-1.25c-0.85-0.81-2-1.94-3.25-3.21
													c-1.25-1.27-2.37-2.44-3.16-3.3c-0.79-0.86-1.26-1.42-1.22-1.46c0.04-0.04,0.59,0.43,1.44,1.24s2.01,1.94,3.26,3.22
													c1.25,1.27,2.37,2.44,3.16,3.31C396.07,65.96,396.54,66.51,396.49,66.55z"/>
											</g>
										</g>
									</g>
								</g>
							</g>
						</g>
					</g>
				</g>
			</g>
		</g>
		<g>
			<g>
				<g>
					<g>
						<g>
							<g>
								<g>
									<g>
										<g>
											<g>
												<path class="st0" d="M446.99,118.93c0,0-0.01-0.09-0.01-0.26c0-0.18-0.01-0.42-0.01-0.73
													c-0.01-0.66-0.01-1.61-0.02-2.84c-0.01-2.49-0.03-6.12-0.05-10.73c-0.02-9.22-0.06-22.35-0.1-38.08l0.19,0.19
													c-14.7,0.01-31.97,0.02-50.36,0.03h-0.01l0.22-0.22c-0.01,19.32-0.02,37.4-0.03,52.64l-0.19-0.19
													c15.09,0.04,27.66,0.07,36.47,0.1c4.4,0.02,7.86,0.04,10.24,0.05c1.18,0.01,2.08,0.02,2.71,0.02
													c0.3,0,0.53,0.01,0.7,0.01C446.9,118.92,446.99,118.92,446.99,118.93c0,0-0.07,0.01-0.22,0.01
													c-0.17,0-0.39,0.01-0.68,0.01c-0.62,0.01-1.51,0.01-2.67,0.02c-2.37,0.01-5.82,0.03-10.2,0.05
													c-8.84,0.02-21.45,0.06-36.59,0.1l-0.19,0l0-0.19c-0.01-15.24-0.02-33.32-0.03-52.64l0-0.22h0.22h0.01
													c18.39,0.01,35.66,0.02,50.36,0.03h0.2l0,0.19c-0.04,15.78-0.08,28.96-0.1,38.21c-0.02,4.59-0.04,8.2-0.05,10.68
													c-0.01,1.22-0.02,2.15-0.02,2.8c0,0.3-0.01,0.54-0.01,0.71C447,118.85,446.99,118.93,446.99,118.93z"/>
											</g>
										</g>
									</g>
								</g>
							</g>
						</g>
					</g>
				</g>
			</g>
		</g>
		<g>
			<g>
				<g>
					<g>
						<g>
							<g>
								<g>
									<g>
										<g>
											<rect x="413.45" y="84.18" class="st3" width="16.85" height="16.85"/>
										</g>
									</g>
								</g>
							</g>
						</g>
					</g>
				</g>
			</g>
		</g>
	</g>
	<g>
		<g>
			<g>
				<g>
					<g>
						<g>
							<g>
								<g>
									<g>
										<g>
											<rect x="392.02" y="156.29" class="st0" width="69.07" height="72"/>
										</g>
									</g>
								</g>
							</g>
						</g>
					</g>
				</g>
			</g>
		</g>
		<g>
			<g>
				<g>
					<g>
						<g>
							<g>
								<g>
									<g>
										<g>
											<rect x="387.34" y="156.29" class="st1" width="69.07" height="72"/>
										</g>
									</g>
								</g>
							</g>
						</g>
					</g>
				</g>
			</g>
			<g>
				<g>
					<g>
						<g>
							<g>
								<g>
									<g>
										<g>
											<path class="st0" d="M456.43,228.31h-69.11v-72.04h69.11V228.31z M387.36,228.27h69.03v-71.96h-69.03V228.27z"/>
										</g>
									</g>
								</g>
							</g>
						</g>
					</g>
				</g>
			</g>
		</g>
		<g>
			<g>
				<g>
					<g>
						<g>
							<g>
								<g>
									<g>
										<g>
											<rect x="396.63" y="165.97" class="st2" width="50.5" height="52.64"/>
										</g>
									</g>
								</g>
							</g>
						</g>
					</g>
				</g>
			</g>
		</g>
		<g>
			<g>
				<g>
					<g>
						<g>
							<g>
								<g>
									<g>
										<g>
											<g>
												<path class="st0" d="M396.63,218.96c0.04,0.05-0.44,0.6-1.25,1.45c-0.81,0.85-1.94,2-3.21,3.25
													c-1.27,1.25-2.44,2.37-3.3,3.16c-0.86,0.79-1.42,1.26-1.46,1.22c-0.04-0.04,0.43-0.59,1.24-1.44
													c0.81-0.85,1.94-2.01,3.22-3.26c1.27-1.25,2.44-2.37,3.31-3.16C396.04,219.38,396.59,218.91,396.63,218.96z"/>
											</g>
										</g>
									</g>
								</g>
							</g>
						</g>
					</g>
				</g>
			</g>
		</g>
		<g>
			<g>
				<g>
					<g>
						<g>
							<g>
								<g>
									<g>
										<g>
											<g>
												<path class="st0" d="M447.13,218.83c0.05-0.04,0.6,0.44,1.45,1.25c0.85,0.81,2,1.94,3.25,3.21
													c1.25,1.27,2.37,2.44,3.16,3.3c0.79,0.86,1.26,1.42,1.22,1.46c-0.04,0.04-0.59-0.43-1.44-1.24
													c-0.85-0.81-2.01-1.94-3.26-3.22c-1.25-1.27-2.37-2.44-3.16-3.31C447.55,219.42,447.08,218.87,447.13,218.83z"/>
											</g>
										</g>
									</g>
								</g>
							</g>
						</g>
					</g>
				</g>
			</g>
		</g>
		<g>
			<g>
				<g>
					<g>
						<g>
							<g>
								<g>
									<g>
										<g>
											<g>
												<path class="st0" d="M446.99,166.11c-0.04-0.05,0.44-0.6,1.25-1.45c0.81-0.85,1.94-2,3.21-3.25
													c1.27-1.25,2.44-2.37,3.3-3.16c0.86-0.79,1.42-1.26,1.46-1.22c0.04,0.04-0.43,0.59-1.24,1.44
													c-0.81,0.85-1.94,2.01-3.22,3.26c-1.27,1.25-2.44,2.37-3.31,3.16C447.58,165.69,447.03,166.16,446.99,166.11z"/>
											</g>
										</g>
									</g>
								</g>
							</g>
						</g>
					</g>
				</g>
			</g>
		</g>
		<g>
			<g>
				<g>
					<g>
						<g>
							<g>
								<g>
									<g>
										<g>
											<g>
												<path class="st0" d="M396.49,166.24c-0.05,0.04-0.6-0.44-1.45-1.25c-0.85-0.81-2-1.94-3.25-3.21
													c-1.25-1.27-2.37-2.44-3.16-3.3c-0.79-0.86-1.26-1.42-1.22-1.46c0.04-0.04,0.59,0.43,1.44,1.24
													c0.85,0.81,2.01,1.94,3.26,3.22c1.25,1.27,2.37,2.44,3.16,3.31C396.07,165.65,396.54,166.2,396.49,166.24z"/>
											</g>
										</g>
									</g>
								</g>
							</g>
						</g>
					</g>
				</g>
			</g>
		</g>
		<g>
			<g>
				<g>
					<g>
						<g>
							<g>
								<g>
									<g>
										<g>
											<g>
												<path class="st0" d="M446.99,218.61c0,0-0.01-0.09-0.01-0.26c0-0.18-0.01-0.42-0.01-0.73
													c-0.01-0.66-0.01-1.61-0.02-2.84c-0.01-2.49-0.03-6.12-0.05-10.73c-0.02-9.22-0.06-22.35-0.1-38.08l0.19,0.19
													c-14.7,0.01-31.97,0.02-50.36,0.03h-0.01l0.22-0.22c-0.01,19.32-0.02,37.4-0.03,52.64l-0.19-0.19
													c15.09,0.04,27.66,0.07,36.47,0.1c4.4,0.02,7.86,0.04,10.24,0.05c1.18,0.01,2.08,0.02,2.71,0.02
													c0.3,0,0.53,0.01,0.7,0.01C446.9,218.6,446.99,218.61,446.99,218.61c0,0-0.07,0.01-0.22,0.01
													c-0.17,0-0.39,0.01-0.68,0.01c-0.62,0.01-1.51,0.01-2.67,0.02c-2.37,0.01-5.82,0.03-10.2,0.05
													c-8.84,0.02-21.45,0.06-36.59,0.1l-0.19,0l0-0.19c-0.01-15.24-0.02-33.32-0.03-52.64l0-0.22h0.22h0.01
													c18.39,0.01,35.66,0.02,50.36,0.03h0.2l0,0.19c-0.04,15.78-0.08,28.96-0.1,38.21c-0.02,4.59-0.04,8.2-0.05,10.68
													c-0.01,1.22-0.02,2.15-0.02,2.8c0,0.3-0.01,0.54-0.01,0.71C447,218.54,446.99,218.61,446.99,218.61z"/>
											</g>
										</g>
									</g>
								</g>
							</g>
						</g>
					</g>
				</g>
			</g>
		</g>
		<g>
			<g>
				<g>
					<g>
						<g>
							<g>
								<g>
									<g>
										<g>
											<rect x="413.45" y="183.86" class="st3" width="16.85" height="16.85"/>
										</g>
									</g>
								</g>
							</g>
						</g>
					</g>
				</g>
			</g>
		</g>
	</g>
	<g>
		<g>
			<g>
				<g>
					<g>
						<g>
							<g>
								<g>
									<g>
										<g>
											<rect x="46.16" y="231.16" class="st0" width="54.48" height="56.8"/>
										</g>
									</g>
								</g>
							</g>
						</g>
					</g>
				</g>
			</g>
		</g>
		<g>
			<g>
				<g>
					<g>
						<g>
							<g>
								<g>
									<g>
										<g>
											<rect x="42.47" y="231.16" class="st1" width="54.48" height="56.8"/>
										</g>
									</g>
								</g>
							</g>
						</g>
					</g>
				</g>
			</g>
			<g>
				<g>
					<g>
						<g>
							<g>
								<g>
									<g>
										<g>
											<path class="st0" d="M96.97,287.97H42.45v-56.83h54.52V287.97z M42.48,287.94h54.45v-56.76H42.48V287.94z"/>
										</g>
									</g>
								</g>
							</g>
						</g>
					</g>
				</g>
			</g>
		</g>
		<g>
			<g>
				<g>
					<g>
						<g>
							<g>
								<g>
									<g>
										<g>
											<rect x="49.79" y="238.79" class="st2" width="39.84" height="41.53"/>
										</g>
									</g>
								</g>
							</g>
						</g>
					</g>
				</g>
			</g>
		</g>
		<g>
			<g>
				<g>
					<g>
						<g>
							<g>
								<g>
									<g>
										<g>
											<g>
												<path class="st0" d="M49.79,280.59c0.03,0.04-0.35,0.47-0.98,1.14c-0.64,0.67-1.53,1.58-2.53,2.57
													c-1,0.99-1.92,1.87-2.6,2.49c-0.68,0.62-1.12,0.99-1.15,0.96c-0.03-0.03,0.34-0.47,0.98-1.14
													c0.64-0.67,1.53-1.58,2.54-2.57c1.01-0.99,1.93-1.87,2.61-2.5C49.32,280.92,49.76,280.56,49.79,280.59z"/>
											</g>
										</g>
									</g>
								</g>
							</g>
						</g>
					</g>
				</g>
			</g>
		</g>
		<g>
			<g>
				<g>
					<g>
						<g>
							<g>
								<g>
									<g>
										<g>
											<g>
												<path class="st0" d="M89.63,280.49c0.04-0.03,0.47,0.35,1.14,0.98c0.67,0.64,1.58,1.53,2.57,2.53
													c0.99,1,1.87,1.92,2.49,2.6c0.62,0.68,0.99,1.12,0.96,1.15c-0.03,0.03-0.47-0.34-1.14-0.98
													c-0.67-0.64-1.58-1.53-2.57-2.54c-0.99-1.01-1.87-1.93-2.5-2.61C89.96,280.96,89.59,280.52,89.63,280.49z"/>
											</g>
										</g>
									</g>
								</g>
							</g>
						</g>
					</g>
				</g>
			</g>
		</g>
		<g>
			<g>
				<g>
					<g>
						<g>
							<g>
								<g>
									<g>
										<g>
											<g>
												<path class="st0" d="M89.52,238.9c-0.03-0.04,0.35-0.47,0.98-1.14c0.64-0.67,1.53-1.58,2.53-2.57
													c1-0.99,1.92-1.87,2.6-2.49c0.68-0.62,1.12-0.99,1.15-0.96c0.03,0.03-0.34,0.47-0.98,1.14
													c-0.64,0.67-1.53,1.58-2.54,2.57c-1.01,0.99-1.93,1.87-2.61,2.5C89.99,238.57,89.55,238.94,89.52,238.9z"/>
											</g>
										</g>
									</g>
								</g>
							</g>
						</g>
					</g>
				</g>
			</g>
		</g>
		<g>
			<g>
				<g>
					<g>
						<g>
							<g>
								<g>
									<g>
										<g>
											<g>
												<path class="st0" d="M49.68,239.01c-0.04,0.03-0.47-0.35-1.14-0.98c-0.67-0.64-1.58-1.53-2.57-2.53
													c-0.99-1-1.87-1.92-2.49-2.6c-0.62-0.68-0.99-1.12-0.96-1.15c0.03-0.03,0.47,0.34,1.14,0.98
													c0.67,0.64,1.58,1.53,2.57,2.54c0.99,1,1.87,1.93,2.5,2.61C49.35,238.54,49.72,238.97,49.68,239.01z"/>
											</g>
										</g>
									</g>
								</g>
							</g>
						</g>
					</g>
				</g>
			</g>
		</g>
		<g>
			<g>
				<g>
					<g>
						<g>
							<g>
								<g>
									<g>
										<g>
											<g>
												<path class="st0" d="M89.52,280.32c0,0-0.01-0.07-0.01-0.2c0-0.14,0-0.33-0.01-0.58c0-0.52-0.01-1.27-0.02-2.24
													c-0.01-1.97-0.02-4.83-0.04-8.46c-0.02-7.27-0.05-17.63-0.08-30.04l0.15,0.15c-11.6,0.01-25.22,0.01-39.72,0.02h0
													l0.18-0.18c-0.01,15.24-0.02,29.5-0.02,41.53l-0.15-0.15c11.9,0.03,21.82,0.06,28.76,0.08c3.47,0.02,6.2,0.03,8.08,0.04
													c0.93,0.01,1.64,0.01,2.14,0.02c0.24,0,0.42,0.01,0.55,0.01C89.45,280.31,89.52,280.32,89.52,280.32
													c0,0-0.06,0.01-0.18,0.01c-0.13,0-0.31,0-0.54,0.01c-0.49,0-1.19,0.01-2.11,0.02c-1.87,0.01-4.59,0.02-8.05,0.04
													c-6.97,0.02-16.92,0.05-28.86,0.08l-0.15,0l0-0.15c-0.01-12.03-0.02-26.28-0.03-41.53l0-0.18h0.18h0
													c14.51,0.01,28.13,0.02,39.72,0.02h0.15l0,0.15c-0.03,12.45-0.06,22.84-0.08,30.14c-0.02,3.62-0.03,6.47-0.04,8.43
													c-0.01,0.96-0.01,1.7-0.02,2.21c0,0.24-0.01,0.43-0.01,0.56C89.52,280.26,89.52,280.32,89.52,280.32z"/>
											</g>
										</g>
									</g>
								</g>
							</g>
						</g>
					</g>
				</g>
			</g>
		</g>
		<g>
			<g>
				<g>
					<g>
						<g>
							<g>
								<g>
									<g>
										<g>
											<rect x="63.06" y="252.91" class="st3" width="13.29" height="13.29"/>
										</g>
									</g>
								</g>
							</g>
						</g>
					</g>
				</g>
			</g>
		</g>
	</g>
	<g>
		<g>
			<path class="st0" d="M453.95,257.62c-10.71,5.55-18.92,15.1-24.82,25.61c-5.9,10.51-9.71,22.05-13.48,33.51l-3.3,59.08
				c12.46-21.2,22.46-46.11,25.16-70.55c-2.76-0.25-5.53-0.49-8.29-0.74c5.56-0.85,10.23-4.88,13.19-9.65
				c2.97-4.78,4.5-10.28,5.99-15.71c-3.37,0.5-6.74,1-10.12,1.5C446.21,275.38,451.95,266.93,453.95,257.62z"/>
		</g>
		<g>
			<path class="st3" d="M410.51,389.66c0,0-27.04-32.37-26.73-63.27h10.92c0,0-11.87-7.8-10.93-12.17s1.25-20.91,1.25-20.91
				l9.99,2.5c0,0-7.49-3.75-8.43-9.68c-0.94-5.93,2.18-33.4,2.18-33.4s12.17,12.8,15.92,25.91c3.75,13.11,13.58,28.4,10.69,68.35
				S410.51,389.66,410.51,389.66z"/>
		</g>
		<g>
			<path class="st3" d="M424.22,392.71c0,0,29.3-19.52,35.81-44.43l-8.78-2.39c0,0,11.25-3.68,11.45-7.4
				c0.2-3.72,3.57-17.09,3.57-17.09l-8.58-0.18c0,0,6.84-1.37,8.89-5.94c2.05-4.56,5.55-27.33,5.55-27.33s-12.59,7.63-18.47,17.34
				c-5.88,9.72-17.13,19.86-23.55,52.62S424.22,392.71,424.22,392.71z"/>
		</g>
		<g>
			<g>
				<path class="st0" d="M396.16,280.95c0.01,0,0.04,0.11,0.1,0.34c0.06,0.25,0.14,0.58,0.24,1c0.2,0.91,0.49,2.2,0.86,3.84
					c0.38,1.67,0.81,3.71,1.29,6.09c0.48,2.38,1.04,5.09,1.59,8.09c1.16,6,2.38,13.18,3.64,21.16c1.22,7.99,2.44,16.79,3.52,26.05
					c1.06,9.27,1.88,18.12,2.52,26.18c0.6,8.06,1.04,15.33,1.28,21.43c0.15,3.05,0.22,5.82,0.3,8.24c0.08,2.43,0.12,4.52,0.14,6.23
					c0.02,1.68,0.03,3,0.04,3.93c0,0.43,0,0.77,0,1.02c0,0.23-0.01,0.35-0.02,0.35c-0.01,0-0.02-0.12-0.03-0.35
					c-0.01-0.26-0.03-0.6-0.05-1.02c-0.03-0.93-0.08-2.25-0.14-3.93c-0.05-1.71-0.12-3.8-0.23-6.22c-0.1-2.42-0.2-5.19-0.37-8.24
					c-0.29-6.1-0.77-13.36-1.39-21.41c-0.66-8.05-1.5-16.89-2.56-26.15c-1.08-9.26-2.28-18.05-3.48-26.04
					c-1.23-7.98-2.42-15.16-3.53-21.16c-0.53-3.01-1.06-5.72-1.52-8.1c-0.45-2.39-0.85-4.44-1.2-6.11
					c-0.33-1.65-0.58-2.95-0.76-3.86c-0.08-0.42-0.14-0.75-0.19-1.01C396.16,281.07,396.15,280.95,396.16,280.95z"/>
			</g>
		</g>
		<g>
			<path class="st3" d="M406.76,409.48c0,0-24.75-28.08-32.43-45.05l5.8-2.48c-4.2,0.69-8.51-1.11-11.77-3.86
				c-3.26-2.74-5.65-6.35-8-9.91l7.64-1.29c-6.95-1.95-13.07-6.69-16.7-12.93c9.02,1.48,17.18,6.44,23.9,12.63
				c5.44,5.01,10.05,10.83,14.48,16.78c2.16,2.9,4.05,5.99,5.62,9.25C399.46,381.2,406.77,399.17,406.76,409.48z"/>
		</g>
		<g>
			<g>
				<path class="st0" d="M460.41,304.31c0.01,0-0.03,0.1-0.11,0.29c-0.1,0.21-0.22,0.48-0.38,0.82c-0.36,0.74-0.86,1.79-1.51,3.12
					c-1.33,2.7-3.2,6.62-5.48,11.48c-2.28,4.86-4.91,10.7-7.73,17.21c-2.8,6.53-5.78,13.74-8.74,21.39c-2.95,7.65-5.6,15-7.92,21.71
					c-2.3,6.72-4.28,12.8-5.86,17.94c-1.59,5.13-2.84,9.3-3.67,12.18c-0.42,1.41-0.75,2.52-0.98,3.32c-0.11,0.36-0.2,0.64-0.27,0.86
					c-0.06,0.19-0.1,0.29-0.11,0.29c-0.01,0,0.01-0.1,0.06-0.3c0.06-0.22,0.13-0.51,0.22-0.87c0.21-0.8,0.51-1.92,0.89-3.34
					c0.77-2.9,1.97-7.09,3.52-12.23c1.54-5.15,3.49-11.25,5.76-17.98c2.3-6.73,4.94-14.08,7.89-21.74
					c2.97-7.65,5.96-14.87,8.79-21.39c2.85-6.51,5.51-12.33,7.83-17.18c2.32-4.85,4.25-8.75,5.63-11.42
					c0.68-1.31,1.21-2.34,1.59-3.07c0.18-0.33,0.32-0.59,0.43-0.79C460.35,304.4,460.41,304.31,460.41,304.31z"/>
			</g>
		</g>
		<g>
			<g>
				<path class="st0" d="M408.85,421.51c-0.02,0-0.06-0.18-0.12-0.52c-0.07-0.4-0.15-0.89-0.24-1.49c-0.19-1.3-0.51-3.17-0.97-5.46
					c-0.45-2.3-1.08-5.01-1.89-8c-0.84-2.98-1.86-6.22-3.11-9.56c-1.27-3.34-2.64-6.45-3.98-9.24c-1.36-2.78-2.68-5.23-3.87-7.25
					c-1.18-2.02-2.17-3.64-2.88-4.74c-0.32-0.51-0.59-0.94-0.8-1.28c-0.18-0.3-0.27-0.46-0.25-0.47c0.01-0.01,0.13,0.13,0.34,0.41
					c0.24,0.33,0.53,0.73,0.88,1.23c0.77,1.06,1.81,2.66,3.03,4.66c1.23,2,2.58,4.45,3.98,7.23c1.37,2.79,2.76,5.91,4.04,9.27
					c1.26,3.36,2.28,6.62,3.09,9.62c0.79,3.01,1.39,5.74,1.79,8.05c0.41,2.31,0.68,4.2,0.81,5.5c0.06,0.6,0.11,1.1,0.15,1.5
					C408.87,421.33,408.87,421.51,408.85,421.51z"/>
			</g>
		</g>
		<g>
			<rect x="387.35" y="414.91" class="st0" width="54.16" height="11.05"/>
		</g>
		<g>
			<polygon class="st0" points="392.51,425.96 398.06,457.63 430.79,457.63 436.56,425.96 			"/>
		</g>
		<g>
			<g>
				<path class="st3" d="M438.19,425.95c0,0.14-10.25,0.26-22.88,0.26c-12.64,0-22.89-0.12-22.89-0.26c0-0.14,10.24-0.26,22.89-0.26
					C427.94,425.69,438.19,425.81,438.19,425.95z"/>
			</g>
		</g>
	</g>
	<g>
		<g>
			<g>
				<rect x="32.13" y="50.81" class="st0" width="87.96" height="142.86"/>
			</g>
		</g>
		<g>
			<g>
				<rect x="29.2" y="50.81" class="st3" width="87.96" height="142.86"/>
			</g>
		</g>
		<g>
			<g>
				<rect x="32.95" y="53.7" class="st2" width="80.47" height="137.07"/>
			</g>
		</g>
		<g>
			<g>
				<g>
					<rect x="48.27" y="71.52" class="st3" width="49.48" height="101.45"/>
				</g>
			</g>
			<g>
				<g>
					<path class="st0" d="M48.27,137.06c-0.11-9.48,8.57-18.73,18.13-20.05c4.56-0.63,9.41,0.26,13.67-1.46
						c7.61-3.06,10.03-12.98,17.68-15.92l0.35,73.32H48.27V137.06z"/>
				</g>
			</g>
		</g>
	</g>
</g>
<g id="Background_Simple" class="st4">
	<g class="st5">
		<path class="st6" d="M436.22,87.08l-2.37-3.91c-20.01-32.98-56.19-52.86-94.34-50.44c-4.9,0.31-9.79,0.97-14.6,2.01
			c-34.68,7.42-64.86,33.65-77.37,67.24c-7.36,19.76-9.41,42.5-23.37,58.18c-18.17,20.41-49.02,21.05-76.14,20.2
			c-27.12-0.85-57.99-0.12-76.07,20.36c-11.32,12.83-14.92,31.08-14.01,48.26c2.42,45.49,34.12,86.17,74.44,106.39
			c40.32,20.22,87.78,22.03,131.91,13.14c61.81-12.46,120.59-46.68,155.93-99.53C455.55,216.13,464.49,144.13,436.22,87.08z"/>
	</g>
</g>
<g id="Floor">
	<g>
		<g>
			<path class="st7" d="M472.51,458.08c0,0.14-99.63,0.26-222.5,0.26c-122.92,0-222.53-0.12-222.53-0.26s99.61-0.26,222.53-0.26
				C372.88,457.82,472.51,457.94,472.51,458.08z"/>
		</g>
	</g>
</g>
<g id="Device">
	<g>
		<g>
			<g>
				<g>
					<g>
						<g>
							<g>
								<g>
									<g>
										<g>
											<g>
												<g>
													<g>
														<g>
															<g>
																<g>
																	<g>
																		<g>
																			<g>
																				<g>
																					<g>
																						<g>
																							<g>
																								<path class="st7" d="M350.76,371.46l-201.52,0c-5.45,0-9.88-4.57-9.88-10.21l0-308.03
																									c0-5.64,4.42-10.21,9.88-10.21l201.52,0c5.45,0,9.88,4.57,9.88,10.22l0,308.03
																									C360.63,366.88,356.21,371.46,350.76,371.46z"/>
																							</g>
																						</g>
																					</g>
																				</g>
																			</g>
																		</g>
																	</g>
																</g>
															</g>
														</g>
													</g>
												</g>
											</g>
											<g>
												<g>
													<g>
														<g>
															<g>
																<g>
																	<g>
																		<g>
																			<g>
																				<g>
																					<g>
																						<g>
																							<path class="st8" d="M253.86,356.52c0,5.09-4.2,9.21-9.38,9.21c-5.18,0-9.38-4.13-9.38-9.21
																								c0-5.09,4.2-9.21,9.38-9.21C249.66,347.3,253.86,351.43,253.86,356.52z"/>
																						</g>
																					</g>
																				</g>
																			</g>
																		</g>
																	</g>
																</g>
															</g>
														</g>
													</g>
												</g>
											</g>
										</g>
									</g>
								</g>
							</g>
						</g>
						<g>
							<g>
								<g>
									<g>
										<path class="st8" d="M272.67,60.35h-45.19c-1.74,0-3.15-1.46-3.15-3.26l0,0c0-1.8,1.41-3.26,3.15-3.26h45.19
											c1.74,0,3.15,1.46,3.15,3.26l0,0C275.82,58.89,274.41,60.35,272.67,60.35z"/>
									</g>
								</g>
							</g>
						</g>
					</g>
				</g>
				<g>
					<g>
						<g>
							<g>
								<g>
									<g>
										<g>
											<g>
												<g>
													<g>
														<g>
															<g>
																<g>
																	<rect x="146.15" y="66.43" class="st2" width="207.31" height="274.31"/>
																</g>
															</g>
														</g>
													</g>
												</g>
											</g>
										</g>
									</g>
								</g>
							</g>
						</g>
					</g>
				</g>
			</g>
		</g>
		<g>
			<rect x="146.34" y="66.43" class="st3" width="207.31" height="274.31"/>
		</g>
		<g>
			<path class="st2" d="M326.4,318.21H173.6c-5.44,0-9.86-4.41-9.86-9.86V98.65c0-5.44,4.41-9.86,9.86-9.86H326.4
				c5.44,0,9.86,4.41,9.86,9.86v209.71C336.26,313.8,331.85,318.21,326.4,318.21z"/>
		</g>
		<g>
			<g>
				<path class="st9" d="M219.66,118.39l0.97-2.19c0.93,0.61,2.25,1.03,3.46,1.03c1.23,0,1.71-0.34,1.71-0.85
					c0-1.66-5.96-0.45-5.96-4.34c0-1.87,1.53-3.4,4.64-3.4c1.36,0,2.77,0.31,3.8,0.91l-0.91,2.2c-1-0.54-1.99-0.81-2.9-0.81
					c-1.24,0-1.69,0.42-1.69,0.94c0,1.6,5.94,0.4,5.94,4.27c0,1.83-1.53,3.38-4.64,3.38C222.36,119.55,220.65,119.08,219.66,118.39z
					"/>
				<path class="st9" d="M229.64,108.81c0-0.85,0.69-1.51,1.74-1.51c1.05,0,1.74,0.61,1.74,1.47c0,0.9-0.69,1.56-1.74,1.56
					C230.32,110.32,229.64,109.67,229.64,108.81z M229.95,111.22h2.84v8.11h-2.84V111.22z"/>
				<path class="st9" d="M243.36,111.22v6.63c0,3.07-1.74,4.52-4.76,4.52c-1.56,0-3.04-0.36-4.03-1.06l1.03-1.99
					c0.67,0.54,1.78,0.87,2.74,0.87c1.53,0,2.17-0.69,2.17-1.96v-0.27c-0.55,0.64-1.38,0.96-2.41,0.96c-2.16,0-3.98-1.53-3.98-3.92
					c0-2.38,1.83-3.91,3.98-3.91c1.12,0,1.99,0.36,2.54,1.12v-0.99H243.36z M240.55,114.99c0-0.99-0.75-1.65-1.77-1.65
					c-1.02,0-1.78,0.66-1.78,1.65c0,0.99,0.76,1.66,1.78,1.66C239.8,116.66,240.55,115.98,240.55,114.99z"/>
				<path class="st9" d="M253.83,114.7v4.64h-2.84v-4.18c0-1.17-0.51-1.66-1.33-1.66c-0.91,0-1.62,0.57-1.62,1.92v3.92h-2.84v-8.11
					h2.71v0.88c0.64-0.67,1.56-1.02,2.57-1.02C252.38,111.09,253.83,112.18,253.83,114.7z"/>
				<path class="st9" d="M268.5,111.22v8.11h-2.71v-0.87c-0.61,0.67-1.48,1-2.41,1c-1.99,0-3.44-1.14-3.44-3.71v-4.54h2.84v4.07
					c0,1.26,0.49,1.75,1.35,1.75c0.84,0,1.53-0.55,1.53-1.92v-3.91H268.5z"/>
				<path class="st9" d="M279.42,115.28c0,2.57-1.78,4.19-3.98,4.19c-0.94,0-1.71-0.28-2.26-0.85v3.62h-2.84v-11.02h2.71v0.81
					c0.54-0.64,1.33-0.94,2.4-0.94C277.64,111.09,279.42,112.7,279.42,115.28z M276.54,115.28c0-1.23-0.75-1.93-1.71-1.93
					c-0.96,0-1.71,0.7-1.71,1.93c0,1.23,0.75,1.93,1.71,1.93C275.79,117.21,276.54,116.51,276.54,115.28z"/>
			</g>
			<g>
				<path class="st7" d="M183.45,177.89V179h1.94v0.78h-1.94v1.53h-0.97v-4.2h3.17v0.78H183.45z"/>
				<path class="st7" d="M189.42,178.08v3.23h-0.89v-0.38c-0.25,0.28-0.61,0.43-1,0.43c-0.81,0-1.38-0.46-1.38-1.45v-1.82h0.94v1.69
					c0,0.54,0.24,0.78,0.65,0.78c0.43,0,0.74-0.28,0.74-0.87v-1.59H189.42z"/>
				<path class="st7" d="M190.29,176.86h0.94v4.45h-0.94V176.86z"/>
				<path class="st7" d="M192.09,176.86h0.94v4.45h-0.94V176.86z"/>
				<path class="st7" d="M199.51,177.11v4.2h-0.8l-2.09-2.55v2.55h-0.96v-4.2h0.8l2.09,2.55v-2.55H199.51z"/>
				<path class="st7" d="M203.3,179.46v1.84h-0.88v-0.4c-0.17,0.29-0.51,0.45-0.98,0.45c-0.76,0-1.21-0.42-1.21-0.98
					c0-0.57,0.4-0.97,1.39-0.97h0.74c0-0.4-0.24-0.64-0.74-0.64c-0.34,0-0.7,0.11-0.93,0.3l-0.34-0.65
					c0.35-0.25,0.88-0.39,1.39-0.39C202.73,178.03,203.3,178.49,203.3,179.46z M202.36,180.29v-0.33h-0.64
					c-0.44,0-0.58,0.16-0.58,0.38c0,0.23,0.2,0.39,0.53,0.39C201.99,180.72,202.26,180.58,202.36,180.29z"/>
				<path class="st7" d="M209.6,179.46v1.85h-0.94v-1.7c0-0.52-0.23-0.76-0.61-0.76c-0.42,0-0.71,0.27-0.71,0.85v1.62h-0.94v-1.7
					c0-0.52-0.22-0.76-0.61-0.76c-0.41,0-0.71,0.27-0.71,0.85v1.62h-0.94v-3.23h0.89v0.37c0.24-0.28,0.6-0.42,1.01-0.42
					c0.45,0,0.83,0.17,1.06,0.53c0.26-0.33,0.68-0.53,1.16-0.53C209.05,178.03,209.6,178.47,209.6,179.46z"/>
				<path class="st7" d="M213.62,179.96h-2.44c0.09,0.4,0.43,0.65,0.92,0.65c0.34,0,0.59-0.1,0.81-0.31l0.5,0.54
					c-0.3,0.34-0.75,0.52-1.33,0.52c-1.12,0-1.84-0.7-1.84-1.66c0-0.97,0.74-1.66,1.72-1.66c0.95,0,1.68,0.64,1.68,1.67
					C213.64,179.78,213.62,179.88,213.62,179.96z M211.17,179.41h1.59c-0.07-0.41-0.37-0.67-0.79-0.67
					C211.54,178.74,211.23,179,211.17,179.41z"/>
			</g>
			<g>
				<path class="st7" d="M185.73,208.29v0.78h-3.25v-4.2h3.17v0.78h-2.21v0.91h1.95v0.76h-1.95v0.97H185.73z"/>
				<path class="st7" d="M191.89,207.22v1.85h-0.94v-1.7c0-0.52-0.23-0.76-0.61-0.76c-0.42,0-0.71,0.27-0.71,0.85v1.62h-0.94v-1.7
					c0-0.52-0.22-0.76-0.61-0.76c-0.41,0-0.71,0.27-0.71,0.85v1.62h-0.94v-3.23h0.89v0.37c0.24-0.28,0.6-0.42,1.01-0.42
					c0.45,0,0.83,0.17,1.06,0.53c0.26-0.33,0.68-0.53,1.16-0.53C191.34,205.8,191.89,206.24,191.89,207.22z"/>
				<path class="st7" d="M195.59,207.23v1.84h-0.88v-0.4c-0.17,0.29-0.51,0.45-0.98,0.45c-0.76,0-1.21-0.42-1.21-0.98
					c0-0.57,0.4-0.97,1.39-0.97h0.74c0-0.4-0.24-0.64-0.74-0.64c-0.34,0-0.7,0.11-0.93,0.3l-0.34-0.65
					c0.35-0.25,0.88-0.39,1.39-0.39C195.02,205.8,195.59,206.25,195.59,207.23z M194.65,208.05v-0.33h-0.64
					c-0.44,0-0.58,0.16-0.58,0.38c0,0.23,0.2,0.39,0.53,0.39C194.28,208.49,194.55,208.34,194.65,208.05z"/>
				<path class="st7" d="M196.32,204.87c0-0.29,0.23-0.52,0.58-0.52c0.35,0,0.58,0.22,0.58,0.5c0,0.31-0.23,0.54-0.58,0.54
					C196.56,205.39,196.32,205.17,196.32,204.87z M196.44,205.84h0.94v3.23h-0.94V205.84z"/>
				<path class="st7" d="M198.24,204.62h0.94v4.45h-0.94V204.62z"/>
				<path class="st7" d="M204.58,208.17h-1.95l-0.37,0.9h-1l1.87-4.2h0.96l1.88,4.2h-1.02L204.58,208.17z M204.27,207.43l-0.67-1.61
					l-0.67,1.61H204.27z"/>
				<path class="st7" d="M209.6,204.62v4.45h-0.89v-0.37c-0.23,0.28-0.58,0.42-1.01,0.42c-0.91,0-1.61-0.65-1.61-1.66
					c0-1.01,0.7-1.66,1.61-1.66c0.4,0,0.73,0.13,0.97,0.39v-1.57H209.6z M208.68,207.46c0-0.56-0.36-0.89-0.82-0.89
					c-0.47,0-0.83,0.34-0.83,0.89c0,0.56,0.36,0.89,0.83,0.89C208.32,208.35,208.68,208.01,208.68,207.46z"/>
				<path class="st7" d="M213.75,204.62v4.45h-0.89v-0.37c-0.23,0.28-0.58,0.42-1.01,0.42c-0.91,0-1.61-0.65-1.61-1.66
					c0-1.01,0.7-1.66,1.61-1.66c0.4,0,0.73,0.13,0.97,0.39v-1.57H213.75z M212.83,207.46c0-0.56-0.36-0.89-0.82-0.89
					c-0.47,0-0.83,0.34-0.83,0.89c0,0.56,0.36,0.89,0.83,0.89C212.47,208.35,212.83,208.01,212.83,207.46z"/>
				<path class="st7" d="M216.62,205.8v0.86c-0.08-0.01-0.14-0.01-0.21-0.01c-0.52,0-0.86,0.28-0.86,0.9v1.52h-0.94v-3.23h0.89v0.43
					C215.74,205.96,216.12,205.8,216.62,205.8z"/>
				<path class="st7" d="M220.29,207.72h-2.44c0.09,0.4,0.43,0.65,0.92,0.65c0.34,0,0.59-0.1,0.81-0.31l0.5,0.54
					c-0.3,0.34-0.75,0.52-1.33,0.52c-1.12,0-1.84-0.7-1.84-1.66c0-0.97,0.74-1.66,1.72-1.66c0.95,0,1.68,0.64,1.68,1.67
					C220.31,207.54,220.3,207.64,220.29,207.72z M217.84,207.18h1.59c-0.07-0.41-0.37-0.67-0.79-0.67
					C218.21,206.5,217.9,206.76,217.84,207.18z"/>
				<path class="st7" d="M220.62,208.77l0.31-0.67c0.29,0.19,0.73,0.31,1.12,0.31c0.43,0,0.59-0.11,0.59-0.29
					c0-0.53-1.95,0.01-1.95-1.28c0-0.61,0.55-1.04,1.49-1.04c0.44,0,0.94,0.1,1.24,0.28l-0.31,0.67c-0.32-0.18-0.64-0.24-0.93-0.24
					c-0.42,0-0.6,0.13-0.6,0.3c0,0.55,1.95,0.02,1.95,1.29c0,0.6-0.56,1.03-1.52,1.03C221.47,209.12,220.92,208.97,220.62,208.77z"
					/>
				<path class="st7" d="M223.81,208.77l0.31-0.67c0.29,0.19,0.73,0.31,1.12,0.31c0.43,0,0.59-0.11,0.59-0.29
					c0-0.53-1.95,0.01-1.95-1.28c0-0.61,0.55-1.04,1.49-1.04c0.44,0,0.94,0.1,1.24,0.28l-0.31,0.67c-0.32-0.18-0.64-0.24-0.93-0.24
					c-0.42,0-0.6,0.13-0.6,0.3c0,0.55,1.95,0.02,1.95,1.29c0,0.6-0.56,1.03-1.52,1.03C224.66,209.12,224.11,208.97,223.81,208.77z"
					/>
			</g>
			<g>
				<path class="st7" d="M186.76,233.19c0,0.94-0.7,1.52-1.82,1.52h-0.85v1.16h-0.97v-4.2h1.82
					C186.05,231.67,186.76,232.25,186.76,233.19z M185.77,233.19c0-0.46-0.3-0.73-0.89-0.73h-0.79v1.46h0.79
					C185.47,233.92,185.77,233.65,185.77,233.19z"/>
				<path class="st7" d="M190.21,234.03v1.84h-0.88v-0.4c-0.17,0.29-0.51,0.45-0.98,0.45c-0.76,0-1.21-0.42-1.21-0.98
					c0-0.57,0.4-0.96,1.39-0.96h0.74c0-0.4-0.24-0.64-0.74-0.64c-0.34,0-0.7,0.11-0.93,0.3l-0.34-0.65
					c0.35-0.25,0.88-0.39,1.39-0.39C189.64,232.59,190.21,233.05,190.21,234.03z M189.27,234.85v-0.33h-0.64
					c-0.44,0-0.58,0.16-0.58,0.38c0,0.23,0.2,0.39,0.53,0.39C188.89,235.29,189.16,235.14,189.27,234.85z"/>
				<path class="st7" d="M190.74,235.57l0.31-0.67c0.29,0.19,0.73,0.31,1.12,0.31c0.43,0,0.59-0.11,0.59-0.29
					c0-0.53-1.95,0.01-1.95-1.28c0-0.61,0.55-1.04,1.49-1.04c0.44,0,0.94,0.1,1.24,0.28l-0.31,0.66c-0.32-0.18-0.64-0.24-0.93-0.24
					c-0.42,0-0.6,0.13-0.6,0.3c0,0.55,1.95,0.02,1.95,1.29c0,0.6-0.56,1.03-1.52,1.03C191.59,235.92,191.04,235.77,190.74,235.57z"
					/>
				<path class="st7" d="M193.93,235.57l0.31-0.67c0.29,0.19,0.73,0.31,1.12,0.31c0.43,0,0.59-0.11,0.59-0.29
					c0-0.53-1.95,0.01-1.95-1.28c0-0.61,0.55-1.04,1.49-1.04c0.44,0,0.94,0.1,1.24,0.28l-0.31,0.66c-0.32-0.18-0.64-0.24-0.93-0.24
					c-0.42,0-0.6,0.13-0.6,0.3c0,0.55,1.95,0.02,1.95,1.29c0,0.6-0.56,1.03-1.52,1.03C194.78,235.92,194.23,235.77,193.93,235.57z"
					/>
				<path class="st7" d="M202.55,232.64l-1.17,3.23h-0.9l-0.73-2l-0.75,2h-0.9l-1.16-3.23h0.88l0.76,2.18l0.79-2.18h0.79l0.77,2.18
					l0.79-2.18H202.55z"/>
				<path class="st7" d="M202.66,234.26c0-0.97,0.75-1.66,1.77-1.66c1.03,0,1.77,0.69,1.77,1.66c0,0.97-0.74,1.66-1.77,1.66
					C203.41,235.92,202.66,235.23,202.66,234.26z M205.25,234.26c0-0.56-0.35-0.89-0.82-0.89c-0.47,0-0.83,0.34-0.83,0.89
					c0,0.56,0.36,0.89,0.83,0.89C204.9,235.15,205.25,234.81,205.25,234.26z"/>
				<path class="st7" d="M208.83,232.59v0.86c-0.08-0.01-0.14-0.01-0.21-0.01c-0.52,0-0.86,0.28-0.86,0.9v1.52h-0.94v-3.23h0.89
					v0.43C207.95,232.76,208.33,232.59,208.83,232.59z"/>
				<path class="st7" d="M212.65,231.42v4.45h-0.89v-0.37c-0.23,0.28-0.58,0.42-1.01,0.42c-0.91,0-1.61-0.65-1.61-1.66
					c0-1.01,0.7-1.66,1.61-1.66c0.4,0,0.73,0.13,0.97,0.39v-1.56H212.65z M211.73,234.26c0-0.56-0.36-0.89-0.82-0.89
					c-0.47,0-0.83,0.34-0.83,0.89c0,0.56,0.36,0.89,0.83,0.89C211.37,235.15,211.73,234.81,211.73,234.26z"/>
			</g>
			<g>
				<g>
					<path class="st9" d="M293.48,303.16l-79.91,0c-2.64,0-4.78-2.14-4.78-4.78v-8.75c0-2.64,2.14-4.78,4.78-4.78h79.91
						c2.64,0,4.78,2.14,4.78,4.78v8.75C298.26,301.02,296.12,303.16,293.48,303.16z"/>
				</g>
				<g>
					<path class="st2" d="M224.82,293.59c0-1.49,1.14-2.55,2.7-2.55c0.9,0,1.63,0.33,2.11,0.92l-0.88,0.8
						c-0.31-0.37-0.69-0.58-1.16-0.58c-0.81,0-1.37,0.56-1.37,1.4c0,0.84,0.56,1.4,1.37,1.4c0.47,0,0.85-0.2,1.16-0.57l0.88,0.8
						c-0.48,0.59-1.21,0.92-2.11,0.92C225.96,296.14,224.82,295.08,224.82,293.59z"/>
					<path class="st2" d="M232.71,292.18v1.2c-0.12-0.01-0.2-0.02-0.3-0.02c-0.54,0-0.91,0.27-0.91,0.94v1.74h-1.33v-3.8h1.27v0.46
						C231.71,292.36,232.15,292.18,232.71,292.18z"/>
					<path class="st2" d="M237.08,294.48h-2.76c0.11,0.38,0.44,0.61,0.93,0.61c0.37,0,0.62-0.11,0.88-0.33l0.7,0.73
						c-0.36,0.41-0.9,0.62-1.62,0.62c-1.35,0-2.23-0.83-2.23-1.97c0-1.14,0.89-1.95,2.09-1.95c1.12,0,2.03,0.71,2.03,1.97
						C237.1,294.25,237.09,294.38,237.08,294.48z M234.3,293.78h1.55c-0.07-0.4-0.36-0.65-0.78-0.65
						C234.67,293.13,234.38,293.38,234.3,293.78z"/>
					<path class="st2" d="M241.17,293.93v2.11h-1.24v-0.49c-0.19,0.36-0.57,0.55-1.12,0.55c-0.91,0-1.42-0.51-1.42-1.17
						c0-0.7,0.51-1.13,1.69-1.13h0.76c-0.02-0.38-0.28-0.6-0.81-0.6c-0.36,0-0.77,0.13-1.03,0.33l-0.45-0.9
						c0.43-0.29,1.08-0.44,1.67-0.44C240.46,292.18,241.17,292.73,241.17,293.93z M239.84,294.82v-0.33h-0.57
						c-0.43,0-0.58,0.15-0.58,0.38c0,0.22,0.18,0.39,0.5,0.39C239.48,295.27,239.74,295.12,239.84,294.82z"/>
					<path class="st2" d="M244.63,295.89c-0.23,0.15-0.57,0.22-0.92,0.22c-0.97,0-1.54-0.48-1.54-1.45v-1.27h-0.55v-1h0.55v-0.99
						h1.33v0.99h0.87v1h-0.87v1.26c0,0.28,0.16,0.43,0.4,0.43c0.15,0,0.29-0.04,0.41-0.12L244.63,295.89z"/>
					<path class="st2" d="M248.89,294.48h-2.76c0.11,0.38,0.44,0.61,0.93,0.61c0.37,0,0.62-0.11,0.88-0.33l0.7,0.73
						c-0.36,0.41-0.9,0.62-1.62,0.62c-1.35,0-2.23-0.83-2.23-1.97c0-1.14,0.89-1.95,2.09-1.95c1.12,0,2.03,0.71,2.03,1.97
						C248.91,294.25,248.89,294.38,248.89,294.48z M246.1,293.78h1.56c-0.07-0.4-0.36-0.65-0.78-0.65
						C246.47,293.13,246.18,293.38,246.1,293.78z"/>
					<path class="st2" d="M254.9,295.09h-2.07l-0.39,0.95h-1.41l2.16-4.9h1.37l2.17,4.9h-1.44L254.9,295.09z M254.5,294.07
						l-0.63-1.57l-0.63,1.57H254.5z"/>
					<path class="st2" d="M256.79,294.14c0-1.14,0.9-1.95,2.18-1.95c0.86,0,1.52,0.39,1.78,1.04l-1.03,0.53
						c-0.18-0.36-0.45-0.51-0.76-0.51c-0.46,0-0.83,0.32-0.83,0.9c0,0.59,0.36,0.91,0.83,0.91c0.31,0,0.57-0.15,0.76-0.51l1.03,0.53
						c-0.26,0.66-0.92,1.04-1.78,1.04C257.69,296.11,256.79,295.29,256.79,294.14z"/>
					<path class="st2" d="M260.97,294.14c0-1.14,0.9-1.95,2.18-1.95c0.86,0,1.52,0.39,1.78,1.04l-1.03,0.53
						c-0.18-0.36-0.45-0.51-0.76-0.51c-0.46,0-0.83,0.32-0.83,0.9c0,0.59,0.36,0.91,0.83,0.91c0.31,0,0.57-0.15,0.76-0.51l1.03,0.53
						c-0.26,0.66-0.92,1.04-1.78,1.04C261.87,296.11,260.97,295.29,260.97,294.14z"/>
					<path class="st2" d="M265.14,294.14c0-1.14,0.9-1.95,2.14-1.95c1.25,0,2.14,0.81,2.14,1.95c0,1.15-0.89,1.97-2.14,1.97
						C266.05,296.11,265.14,295.29,265.14,294.14z M268.09,294.14c0-0.57-0.34-0.9-0.8-0.9c-0.45,0-0.8,0.32-0.8,0.9
						c0,0.58,0.35,0.91,0.8,0.91C267.74,295.05,268.09,294.72,268.09,294.14z"/>
					<path class="st2" d="M274.04,292.25v3.8h-1.27v-0.41c-0.29,0.32-0.69,0.47-1.13,0.47c-0.93,0-1.61-0.53-1.61-1.74v-2.12h1.33
						v1.91c0,0.59,0.23,0.82,0.63,0.82c0.39,0,0.71-0.26,0.71-0.9v-1.83H274.04z"/>
					<path class="st2" d="M278.93,293.87v2.17h-1.33v-1.95c0-0.55-0.24-0.78-0.62-0.78c-0.43,0-0.76,0.27-0.76,0.9v1.83h-1.33v-3.8
						h1.27v0.41c0.3-0.32,0.73-0.48,1.2-0.48C278.25,292.18,278.93,292.69,278.93,293.87z"/>
					<path class="st2" d="M282.38,295.89c-0.23,0.15-0.57,0.22-0.92,0.22c-0.97,0-1.54-0.48-1.54-1.45v-1.27h-0.55v-1h0.55v-0.99
						h1.33v0.99h0.87v1h-0.87v1.26c0,0.28,0.16,0.43,0.4,0.43c0.15,0,0.29-0.04,0.41-0.12L282.38,295.89z"/>
				</g>
			</g>
			<g>
				<path class="st7" d="M253.75,179.46v-2.35h0.97v2.31c0,0.8,0.35,1.13,0.94,1.13c0.59,0,0.93-0.33,0.93-1.13v-2.31h0.96v2.35
					c0,1.24-0.71,1.92-1.9,1.92C254.46,181.38,253.75,180.69,253.75,179.46z"/>
				<path class="st7" d="M258.14,181l0.31-0.67c0.29,0.19,0.73,0.31,1.12,0.31c0.43,0,0.59-0.11,0.59-0.29
					c0-0.53-1.95,0.01-1.95-1.28c0-0.61,0.55-1.04,1.49-1.04c0.44,0,0.94,0.1,1.24,0.28l-0.31,0.67c-0.32-0.18-0.63-0.24-0.93-0.24
					c-0.42,0-0.6,0.13-0.6,0.3c0,0.55,1.95,0.02,1.95,1.29c0,0.6-0.56,1.03-1.52,1.03C258.99,181.35,258.44,181.2,258.14,181z"/>
				<path class="st7" d="M264.78,179.96h-2.44c0.09,0.4,0.43,0.65,0.92,0.65c0.34,0,0.59-0.1,0.81-0.31l0.5,0.54
					c-0.3,0.34-0.75,0.52-1.33,0.52c-1.12,0-1.84-0.7-1.84-1.66c0-0.97,0.74-1.66,1.72-1.66c0.95,0,1.68,0.64,1.68,1.67
					C264.79,179.78,264.78,179.88,264.78,179.96z M262.32,179.41h1.59c-0.07-0.41-0.37-0.67-0.79-0.67
					C262.7,178.74,262.39,179,262.32,179.41z"/>
				<path class="st7" d="M267.42,178.03v0.86c-0.08-0.01-0.14-0.01-0.21-0.01c-0.52,0-0.86,0.28-0.86,0.9v1.52h-0.94v-3.23h0.89
					v0.43C266.54,178.19,266.92,178.03,267.42,178.03z"/>
				<path class="st7" d="M271.28,179.46v1.85h-0.93v-1.7c0-0.52-0.24-0.76-0.65-0.76c-0.45,0-0.77,0.28-0.77,0.87v1.6h-0.94v-3.23
					h0.89v0.38c0.25-0.28,0.63-0.43,1.07-0.43C270.7,178.03,271.28,178.47,271.28,179.46z"/>
				<path class="st7" d="M274.98,179.46v1.84h-0.88v-0.4c-0.17,0.29-0.51,0.45-0.98,0.45c-0.75,0-1.21-0.42-1.21-0.98
					c0-0.57,0.4-0.97,1.39-0.97h0.74c0-0.4-0.24-0.64-0.74-0.64c-0.34,0-0.7,0.11-0.93,0.3l-0.34-0.65
					c0.35-0.25,0.88-0.39,1.39-0.39C274.41,178.03,274.98,178.49,274.98,179.46z M274.05,180.29v-0.33h-0.64
					c-0.44,0-0.58,0.16-0.58,0.38c0,0.23,0.2,0.39,0.53,0.39C273.67,180.72,273.94,180.58,274.05,180.29z"/>
				<path class="st7" d="M281.28,179.46v1.85h-0.94v-1.7c0-0.52-0.23-0.76-0.61-0.76c-0.42,0-0.71,0.27-0.71,0.85v1.62h-0.94v-1.7
					c0-0.52-0.22-0.76-0.61-0.76c-0.41,0-0.71,0.27-0.71,0.85v1.62h-0.94v-3.23h0.89v0.37c0.24-0.28,0.6-0.42,1.01-0.42
					c0.45,0,0.83,0.17,1.06,0.53c0.26-0.33,0.68-0.53,1.16-0.53C280.73,178.03,281.28,178.47,281.28,179.46z"/>
				<path class="st7" d="M285.3,179.96h-2.44c0.09,0.4,0.43,0.65,0.92,0.65c0.34,0,0.59-0.1,0.81-0.31l0.5,0.54
					c-0.3,0.34-0.75,0.52-1.33,0.52c-1.12,0-1.84-0.7-1.84-1.66c0-0.97,0.74-1.66,1.72-1.66c0.95,0,1.68,0.64,1.68,1.67
					C285.32,179.78,285.31,179.88,285.3,179.96z M282.85,179.41h1.59c-0.07-0.41-0.37-0.67-0.79-0.67
					C283.22,178.74,282.91,179,282.85,179.41z"/>
			</g>
			<g>
				<g>
					<path class="st7" d="M183.11,166.43c19.5,0,38.99,0,58.49,0c0.16,0,0.16-0.25,0-0.25c-19.5,0-38.99,0-58.49,0
						C182.95,166.18,182.95,166.43,183.11,166.43L183.11,166.43z"/>
				</g>
			</g>
			<g>
				<g>
					<path class="st7" d="M258.94,166.43c19.5,0,38.99,0,58.49,0c0.16,0,0.16-0.25,0-0.25c-19.5,0-38.99,0-58.49,0
						C258.78,166.18,258.78,166.43,258.94,166.43L258.94,166.43z"/>
				</g>
			</g>
			<g>
				<path class="st7" d="M246.45,165.8c0-1.15,0.89-2.01,2.09-2.01c1.2,0,2.08,0.85,2.08,2.01c0,1.16-0.89,2.01-2.08,2.01
					C247.34,167.81,246.45,166.95,246.45,165.8z M250.07,165.8c0-0.87-0.65-1.51-1.52-1.51c-0.88,0-1.53,0.64-1.53,1.51
					s0.65,1.51,1.53,1.51C249.41,167.31,250.07,166.67,250.07,165.8z"/>
				<path class="st7" d="M253.01,164.76v0.52c-0.04-0.01-0.08-0.01-0.12-0.01c-0.58,0-0.94,0.35-0.94,1.01v1.48h-0.54v-2.98h0.52
					v0.5C252.11,164.94,252.49,164.76,253.01,164.76z"/>
			</g>
			<g>
				<path class="st3" d="M243.58,198.63h-58.46c-1.73,0-3.14-1.4-3.14-3.14v-6.41c0-1.73,1.4-3.14,3.14-3.14h58.46
					c1.73,0,3.14,1.4,3.14,3.14v6.41C246.71,197.23,245.31,198.63,243.58,198.63z"/>
			</g>
			<g>
				<path class="st3" d="M313.69,225.55H185.12c-1.73,0-3.14-1.4-3.14-3.14v-6.41c0-1.73,1.4-3.14,3.14-3.14h128.57
					c1.73,0,3.14,1.4,3.14,3.14v6.41C316.83,224.15,315.43,225.55,313.69,225.55z"/>
			</g>
			<g>
				<path class="st3" d="M313.69,252.55l-128.57,0c-1.73,0-3.14-1.4-3.14-3.14v-6.41c0-1.73,1.4-3.14,3.14-3.14l128.57,0
					c1.73,0,3.14,1.4,3.14,3.14v6.41C316.83,251.15,315.43,252.55,313.69,252.55z"/>
			</g>
			<g>
				<path class="st3" d="M313.69,198.63h-57.27c-1.73,0-3.14-1.4-3.14-3.14l0-6.41c0-1.73,1.4-3.14,3.14-3.14h57.27
					c1.73,0,3.14,1.4,3.14,3.14v6.41C316.83,197.23,315.43,198.63,313.69,198.63z"/>
			</g>
			<g>
				<path class="st9" d="M187.87,265.11h-3.3c-0.55,0-0.99-0.44-0.99-0.99l0-3.3c0-0.55,0.44-0.99,0.99-0.99h3.3
					c0.55,0,0.99,0.44,0.99,0.99v3.3C188.87,264.66,188.42,265.11,187.87,265.11z"/>
			</g>
			<g>
				<path class="st0" d="M310.8,264.74l-116.21,0c-1.08,0-1.95-0.87-1.95-1.95l0,0c0-1.08,0.87-1.95,1.95-1.95H310.8
					c1.08,0,1.95,0.87,1.95,1.95l0,0C312.75,263.87,311.88,264.74,310.8,264.74z"/>
			</g>
			<g>
				<path class="st0" d="M213.71,272.03h-18.52c-1.08,0-1.95-0.87-1.95-1.95l0,0c0-1.08,0.87-1.95,1.95-1.95h18.52
					c1.08,0,1.95,0.87,1.95,1.95l0,0C215.66,271.16,214.78,272.03,213.71,272.03z"/>
			</g>
			<g>
				<g>
					<path class="st3" d="M313.04,154.02l-126.09,0c-2.42,0-4.38-1.96-4.38-4.38v-7.88c0-2.42,1.96-4.38,4.38-4.38l126.09,0
						c2.42,0,4.38,1.96,4.38,4.38v7.87C317.42,152.06,315.46,154.02,313.04,154.02z"/>
				</g>
				<g>
					<g>
						<path class="st7" d="M224.49,146.98l0.22-0.47c0.31,0.28,0.85,0.49,1.39,0.49c0.73,0,1.04-0.28,1.04-0.65
							c0-1.03-2.54-0.38-2.54-1.94c0-0.65,0.5-1.2,1.61-1.2c0.49,0,1,0.13,1.35,0.37l-0.2,0.48c-0.37-0.23-0.78-0.34-1.15-0.34
							c-0.71,0-1.02,0.3-1.02,0.67c0,1.03,2.54,0.38,2.54,1.92c0,0.64-0.52,1.19-1.63,1.19
							C225.46,147.51,224.83,147.29,224.49,146.98z"/>
						<path class="st7" d="M228.41,143.3c0-0.21,0.17-0.38,0.39-0.38c0.22,0,0.39,0.16,0.39,0.37c0,0.22-0.16,0.38-0.39,0.38
							C228.58,143.67,228.41,143.51,228.41,143.3z M228.52,144.28h0.58v3.18h-0.58V144.28z"/>
						<path class="st7" d="M233.23,144.28v2.75c0,1.12-0.57,1.63-1.65,1.63c-0.58,0-1.17-0.16-1.52-0.47l0.28-0.44
							c0.29,0.25,0.76,0.41,1.22,0.41c0.75,0,1.09-0.35,1.09-1.07v-0.25c-0.28,0.33-0.69,0.49-1.15,0.49
							c-0.92,0-1.61-0.62-1.61-1.54c0-0.92,0.7-1.54,1.61-1.54c0.47,0,0.91,0.17,1.18,0.52v-0.49H233.23z M232.67,145.79
							c0-0.62-0.46-1.03-1.09-1.03c-0.64,0-1.1,0.41-1.1,1.03c0,0.61,0.46,1.04,1.1,1.04C232.21,146.83,232.67,146.4,232.67,145.79z
							"/>
						<path class="st7" d="M237.35,145.63v1.83h-0.58v-1.76c0-0.62-0.31-0.93-0.86-0.93c-0.61,0-1.01,0.37-1.01,1.06v1.64h-0.58
							v-3.18h0.55v0.48c0.23-0.32,0.64-0.51,1.15-0.51C236.8,144.25,237.35,144.7,237.35,145.63z"/>
						<path class="st7" d="M242.99,144.28v3.18h-0.55v-0.48c-0.23,0.33-0.63,0.52-1.08,0.52c-0.82,0-1.37-0.45-1.37-1.39v-1.83h0.58
							v1.76c0,0.62,0.31,0.94,0.86,0.94c0.6,0,0.98-0.37,0.98-1.06v-1.64H242.99z"/>
						<path class="st7" d="M247.38,145.87c0,0.98-0.68,1.63-1.61,1.63c-0.45,0-0.85-0.17-1.11-0.52v1.64h-0.58v-4.34h0.55v0.5
							c0.26-0.35,0.67-0.53,1.13-0.53C246.71,144.25,247.38,144.9,247.38,145.87z M246.8,145.87c0-0.67-0.46-1.12-1.07-1.12
							c-0.61,0-1.07,0.44-1.07,1.12c0,0.68,0.46,1.12,1.07,1.12C246.34,146.99,246.8,146.55,246.8,145.87z"/>
						<path class="st7" d="M254.61,144.28l-1.19,3.18h-0.55l-0.92-2.41l-0.93,2.41h-0.55l-1.18-3.18h0.55l0.92,2.53l0.96-2.53h0.49
							l0.94,2.54l0.95-2.54H254.61z"/>
						<path class="st7" d="M255.09,143.3c0-0.21,0.17-0.38,0.39-0.38c0.22,0,0.39,0.16,0.39,0.37c0,0.22-0.16,0.38-0.39,0.38
							C255.26,143.67,255.09,143.51,255.09,143.3z M255.19,144.28h0.58v3.18h-0.58V144.28z"/>
						<path class="st7" d="M258.65,147.28c-0.17,0.15-0.44,0.22-0.7,0.22c-0.64,0-1.01-0.35-1.01-1v-1.75h-0.54v-0.47h0.54v-0.7
							h0.58v0.7h0.91v0.47h-0.91v1.72c0,0.34,0.18,0.53,0.5,0.53c0.17,0,0.33-0.05,0.45-0.15L258.65,147.28z"/>
						<path class="st7" d="M262.36,145.63v1.83h-0.58v-1.76c0-0.62-0.31-0.93-0.86-0.93c-0.61,0-1.01,0.37-1.01,1.06v1.64h-0.58
							v-4.45h0.58v1.72c0.24-0.31,0.64-0.48,1.12-0.48C261.82,144.25,262.36,144.7,262.36,145.63z"/>
						<path class="st7" d="M268.04,145.34h0.58v1.64c-0.42,0.35-1,0.53-1.59,0.53c-1.29,0-2.24-0.91-2.24-2.15
							c0-1.24,0.95-2.15,2.25-2.15c0.67,0,1.23,0.22,1.61,0.65l-0.37,0.37c-0.35-0.34-0.74-0.49-1.22-0.49
							c-0.97,0-1.67,0.68-1.67,1.61c0,0.92,0.7,1.61,1.67,1.61c0.35,0,0.68-0.08,0.98-0.27V145.34z"/>
						<path class="st7" d="M269.39,145.87c0-0.95,0.7-1.62,1.66-1.62c0.95,0,1.65,0.67,1.65,1.62c0,0.95-0.7,1.63-1.65,1.63
							C270.09,147.5,269.39,146.82,269.39,145.87z M272.11,145.87c0-0.68-0.46-1.12-1.07-1.12c-0.61,0-1.07,0.44-1.07,1.12
							c0,0.68,0.46,1.12,1.07,1.12C271.65,146.99,272.11,146.55,272.11,145.87z"/>
						<path class="st7" d="M273.2,145.87c0-0.95,0.7-1.62,1.66-1.62c0.95,0,1.65,0.67,1.65,1.62c0,0.95-0.7,1.63-1.65,1.63
							C273.9,147.5,273.2,146.82,273.2,145.87z M275.92,145.87c0-0.68-0.46-1.12-1.07-1.12c-0.61,0-1.07,0.44-1.07,1.12
							c0,0.68,0.46,1.12,1.07,1.12C275.46,146.99,275.92,146.55,275.92,145.87z"/>
						<path class="st7" d="M280.34,144.28v2.75c0,1.12-0.57,1.63-1.65,1.63c-0.58,0-1.17-0.16-1.52-0.47l0.28-0.44
							c0.29,0.25,0.76,0.41,1.22,0.41c0.75,0,1.09-0.35,1.09-1.07v-0.25c-0.28,0.33-0.69,0.49-1.15,0.49
							c-0.92,0-1.61-0.62-1.61-1.54c0-0.92,0.7-1.54,1.61-1.54c0.47,0,0.91,0.17,1.17,0.52v-0.49H280.34z M279.78,145.79
							c0-0.62-0.46-1.03-1.09-1.03c-0.64,0-1.1,0.41-1.1,1.03c0,0.61,0.46,1.04,1.1,1.04C279.32,146.83,279.78,146.4,279.78,145.79z
							"/>
						<path class="st7" d="M281.44,143.01h0.58v4.45h-0.58V143.01z"/>
						<path class="st7" d="M285.97,146.06h-2.58c0.07,0.56,0.52,0.93,1.15,0.93c0.37,0,0.68-0.13,0.92-0.38l0.32,0.37
							c-0.29,0.34-0.73,0.52-1.25,0.52c-1.03,0-1.71-0.68-1.71-1.63c0-0.94,0.68-1.62,1.59-1.62c0.92,0,1.57,0.66,1.57,1.64
							C285.99,145.94,285.98,146.01,285.97,146.06z M283.4,145.65h2.04c-0.06-0.53-0.46-0.91-1.02-0.91
							C283.86,144.74,283.46,145.11,283.4,145.65z"/>
					</g>
					<g>
						<path class="st7" d="M216.57,145.71v0.94h2.3c-0.2,0.81-0.93,1.32-1.93,1.32c-1.29,0-2.22-0.92-2.22-2.18
							c0-0.72,0.37-1.42,0.97-1.81c0.97-0.64,2.14-0.39,2.75,0.3c0.16,0.18,0.41,0.24,0.61,0.12l0,0c0.26-0.15,0.33-0.5,0.14-0.73
							c-0.56-0.63-1.39-1.01-2.28-1.01c-1.8,0-3.15,1.34-3.15,3.12c0,1.78,1.37,3.12,3.18,3.12c1.71,0,2.94-1.14,2.94-2.72v-0.48
							H216.57z"/>
					</g>
				</g>
			</g>
		</g>
		<g>
			
				<ellipse transform="matrix(0.9249 -0.3803 0.3803 0.9249 -10.3335 132.9032)" class="st9" cx="331.22" cy="92.61" rx="10.47" ry="10.47"/>
		</g>
		<g>
			<g>
				<g>
					
						<rect x="330.13" y="87.71" transform="matrix(0.7071 0.7071 -0.7071 0.7071 162.4859 -207.0791)" class="st2" width="2.19" height="9.79"/>
				</g>
			</g>
			<g>
				<g>
					
						<rect x="330.13" y="87.71" transform="matrix(0.7071 -0.7071 0.7071 0.7071 31.5294 261.3316)" class="st2" width="2.19" height="9.79"/>
				</g>
			</g>
		</g>
	</g>
</g>
<g id="Speech_Bubble">
	<g>
		<g>
			<g>
				<g>
					<g>
						<g>
							<g>
								<g>
									<g>
										<g>
											<g>
												<g>
													<g>
														<g>
															<g>
																<g>
																	<path class="st2" d="M101.57,369.05l-6.49-0.78c-4.11,2.74-9.09,4.31-14.47,4.17
																		c-12.7-0.32-23.27-10.44-24.16-23.11c-1.03-14.64,10.73-27.03,25.51-26.65c12.55,0.32,23.03,10.21,24.11,22.72
																		c0.53,6.21-1.24,12.02-4.57,16.66l0.01-0.01L101.57,369.05z"/>
																</g>
															</g>
														</g>
													</g>
													<g>
														<g>
															<g>
																<g>
																	<g>
																		<path class="st7" d="M101.57,369.05c0,0-0.01-0.17-0.02-0.47c-0.01-0.32-0.02-0.77-0.03-1.35
																			c-0.02-1.2-0.06-2.93-0.1-5.18l0.15,0.07c0,0-0.01,0.01-0.01,0.01c-0.04,0.03-0.1,0.03-0.13-0.01
																			c-0.03-0.03-0.03-0.08,0-0.11c1.77-2.51,3.73-6.23,4.37-11.09c0.33-2.42,0.29-5.08-0.21-7.86
																			c-0.52-2.77-1.57-5.62-3.21-8.32c-1.66-2.68-3.92-5.18-6.72-7.19c-2.79-2-6.11-3.56-9.75-4.21
																			c-3.63-0.68-7.53-0.54-11.28,0.49c-3.77,1.01-7.33,3.06-10.28,5.85c-1.53,1.38-2.76,3.02-3.89,4.68
																			c-0.5,0.87-1.02,1.74-1.45,2.63l-0.59,1.37l-0.29,0.68l-0.22,0.71c-1.25,3.74-1.53,7.67-1.02,11.36
																			c0.49,3.7,1.94,7.12,3.84,10.01c1.92,2.9,4.35,5.27,6.99,7.04c2.65,1.76,5.48,2.92,8.25,3.54
																			c0.7,0.12,1.38,0.24,2.06,0.36c0.68,0.1,1.35,0.12,2.01,0.18c1.32,0.1,2.59,0.04,3.81-0.07
																			c4.89-0.48,8.66-2.31,11.2-3.97c0.02-0.01,0.04-0.02,0.06-0.01c2.06,0.27,3.67,0.48,4.78,0.63
																			c0.54,0.07,0.95,0.13,1.26,0.17C101.41,369.02,101.57,369.05,101.57,369.05s-0.13-0.01-0.41-0.03
																			c-0.3-0.03-0.71-0.07-1.24-0.13c-1.13-0.12-2.76-0.3-4.85-0.53l0.06-0.01c-2.53,1.71-6.33,3.59-11.27,4.11
																			c-1.23,0.12-2.52,0.19-3.85,0.1c-0.67-0.06-1.35-0.07-2.04-0.17c-0.68-0.12-1.38-0.24-2.09-0.36
																			c-2.8-0.62-5.69-1.78-8.38-3.55c-2.68-1.78-5.16-4.19-7.12-7.13c-1.94-2.94-3.42-6.4-3.93-10.17
																			c-0.52-3.75-0.24-7.75,1.03-11.56l0.22-0.72l0.29-0.7c0.2-0.46,0.4-0.93,0.6-1.39c0.44-0.91,0.96-1.79,1.47-2.68
																			c1.15-1.69,2.4-3.37,3.96-4.77c3-2.84,6.63-4.93,10.47-5.95c3.83-1.05,7.79-1.18,11.48-0.48
																			c3.71,0.67,7.08,2.27,9.91,4.31c2.84,2.05,5.13,4.59,6.8,7.32c1.66,2.74,2.71,5.64,3.23,8.45
																			c0.49,2.82,0.51,5.51,0.17,7.96c-0.68,4.91-2.69,8.65-4.51,11.16l-0.13-0.12c0,0,0.01-0.01,0.01-0.01
																			c0.04-0.03,0.1-0.03,0.13,0.01c0.01,0.02,0.02,0.04,0.02,0.06c0,2.27-0.01,4.02-0.01,5.23
																			c0,0.57-0.01,1.01-0.01,1.33C101.58,368.91,101.57,369.05,101.57,369.05z"/>
																	</g>
																</g>
															</g>
														</g>
													</g>
												</g>
											</g>
										</g>
									</g>
								</g>
							</g>
						</g>
					</g>
				</g>
			</g>
		</g>
		<g>
			<g>
				<g>
					<g>
						<g>
							<g>
								<g>
									<g>
										<g>
											<g>
												<g>
													<g>
														<polygon class="st9" points="70.28,349.08 73.4,345.74 79.81,351.06 91.63,338.89 94.74,342.02 79.57,357.31 
																													"/>
													</g>
												</g>
											</g>
										</g>
									</g>
								</g>
							</g>
						</g>
					</g>
				</g>
			</g>
		</g>
	</g>
</g>
<g id="Character_00000021800266161506010450000008413185368674506141_">
	<g>
		<g>
			<g>
				<g>
					<g>
						<path class="st7" d="M141.37,292.74c0.61-1.96,2.2-3.59,4.15-4.25c0.79-0.27,1.71-0.44,2.17-1.15
							c0.33-0.5,0.32-1.14,0.46-1.72c0.44-1.78,2.6-2.91,4.32-2.26c0.42,0.16,0.82,0.42,1.28,0.43c1.83,0.05,2.1-3.46,3.92-3.39
							c-0.49,0.6-0.93,1.29-1,2.06s0.37,1.63,1.11,1.83c1.94,0.53,2.87-3.23,4.87-2.98c1.08,0.13,1.87,1.47,2.93,1.23
							c0.41-0.09,0.73-0.4,1.08-0.63c1.19-0.75,2.96-0.35,3.71,0.85c0.64,1.02,0.74,2.6,1.9,2.93c0.72,0.2,1.44-0.24,2.06-0.67
							c0.47,1,0.71,2.1,0.69,3.2c2.25,0.15,4.13,2.39,3.89,4.63c1.18,0.25,2.39,0.53,3.39,1.21c1,0.68,1.74,1.88,1.53,3.07
							c-0.05,0.27-0.14,0.54-0.11,0.81c0.03,0.3,0.2,0.56,0.38,0.79c0.7,0.91,1.62,1.67,2.09,2.71c0.47,1.04,0.26,2.55-0.81,2.96
							c-0.25,0.1-0.55,0.14-0.69,0.37c-0.1,0.17-0.07,0.39-0.02,0.59c0.22,0.79,0.77,1.45,1.23,2.13c0.46,0.68,0.85,1.49,0.71,2.3
							c-0.14,0.81-1.05,1.51-1.79,1.16c0.85,1,1.71,2.01,2.56,3.01c0.51,0.6,1.05,1.35,0.8,2.09c-0.33,0.97-1.76,1.03-2.63,0.49
							c-0.87-0.54-1.48-1.44-2.37-1.96c-0.36-0.21-0.77-0.35-1.08-0.63c-0.25-0.22-0.44-0.53-0.77-0.61
							c-0.65-0.16-1.04,0.84-0.69,1.4c0.35,0.56,1.05,0.79,1.65,1.07c0.6,0.28,1.23,0.79,1.18,1.46c-0.03,0.32-0.21,0.61-0.23,0.93
							c-0.06,1.11,1.63,1.33,2.27,2.25c0.47,0.68,0.26,1.6-0.01,2.37c-0.33,0.95-1.31,2.07-2.11,1.45
							c-0.28-0.21-0.39-0.58-0.64-0.82c-0.29-0.28-0.72-0.36-1.11-0.48c-0.97-0.28-1.86-0.85-2.51-1.63
							c1.22,0.57,2.62,1.42,2.61,2.76c0,0.56-0.27,1.08-0.45,1.62c-0.34,1.05-0.31,2.19-0.64,3.24c-0.32,1.05-1.2,2.09-2.3,2.03
							c0.76,0.8,0.89,2.14,0.28,3.07c-0.61,0.93-1.89,1.35-2.93,0.97c-0.29-0.1-0.57-0.27-0.87-0.24c-0.33,0.02-0.6,0.25-0.86,0.45
							c-1.58,1.17-3.84,1.33-5.58,0.41c0.24-0.25,0.49-0.5,0.73-0.74c-1.85,0.62-3.78,1.26-5.71,0.97c-1.93-0.28-3.83-1.8-3.85-3.75
							c-0.01-0.85,0.27-1.85-0.36-2.42c-0.43-0.39-1.09-0.35-1.67-0.28c-2.42,0.28-4.84,0.56-7.27,0.85
							c-1.18,0.14-2.42,0.26-3.49-0.24c-1.07-0.5-1.82-1.88-1.22-2.91c-0.95-0.72-2.1-1.17-3.29-1.27
							c-1.33-0.12-2.67,0.19-4.01,0.14c-1.34-0.06-2.8-0.62-3.32-1.85c-0.51-1.24,0.69-2.97,1.94-2.5
							c-1.05-1.73-4.32-0.27-5.48-1.92c-0.94-1.35,0.56-3.02,0.97-4.6c-0.44-0.41-1.12-0.48-1.57-0.88
							c-0.95-0.83-0.38-2.41,0.41-3.41c0.79-0.99,1.8-2.1,1.51-3.33c-0.3-1.26-1.9-2.07-1.79-3.36c0.07-0.72,0.77-1.31,1.49-1.25
							c-0.19-2.49,4.5-2.84,4.7-5.32c0.02-0.2,0-0.41-0.11-0.57c-0.09-0.14-0.25-0.24-0.4-0.31c-0.73-0.35-1.58-0.31-2.37-0.48
							c-0.79-0.16-1.64-0.67-1.71-1.48c-0.07-0.81,1.23-1.41,1.57-0.68c0.42-1.02,1.95-1.35,2.75-0.58c0.2-0.86,1.19-1.33,2.07-1.26
							c0.88,0.07,1.66,0.55,2.41,1.01"/>
					</g>
				</g>
			</g>
			<g>
				<g>
					<g>
						<path class="st9" d="M162.48,310.92c-2.17-2.62-5.59-3.89-8.94-4.48c-1.41-0.25-2.88-0.39-4.24,0.06
							c-1.35,0.45-2.55,1.63-2.62,3.06l1.27,2.02c1.47,3.5,5.53,4.98,8.39,7.47c1.24,1.09,2.53,2.5,4.18,2.38
							c0.86-0.06,1.65-0.56,2.24-1.19C165.1,317.79,164.65,313.55,162.48,310.92z"/>
					</g>
				</g>
			</g>
			<g>
				<g>
					<g>
						<path class="st7" d="M170.83,326.3c0.58-3.51-1.79-7.26-5.2-8.26c0.4-2.2-1.32-4.34-3.38-5.19c-2.06-0.85-4.38-0.73-6.61-0.6
							c-3.4-3.98-10.16-4.43-14.06-0.94c-4.18-2.18-9.44-0.04-12.8,3.26c-0.82,0.81-1.6,1.7-2.61,2.24
							c-0.75,0.4-1.58,0.58-2.37,0.88c-4.35,1.63-6.84,6.65-6.39,11.27c0.07,0.74,0.21,1.49,0.08,2.22
							c-0.16,0.96-0.75,1.79-1.14,2.68c-0.86,1.92-0.83,4.22,0.09,6.12c0.78,1.61,2.18,3.01,2.28,4.8c0.05,0.9-0.24,1.8-0.09,2.68
							c0.41,2.57,4,3.49,4.76,5.97c0.16,0.51,0.18,1.04,0.29,1.56c0.23,1.06,0.87,2.02,1.74,2.66c0.68,0.49,1.52,0.82,1.96,1.54
							c0.33,0.54,0.37,1.21,0.55,1.81c0.45,1.49,6.12,5.1,7.67,5.21l34.78-18.28c2.33-1.94,3.19-5.46,2.01-8.26
							c-0.2-0.47-0.45-0.95-0.36-1.45c0.07-0.42,0.38-0.76,0.62-1.12c1.59-2.39,0.21-5.6-1.38-7.99c-0.22-0.34-0.45-0.68-0.55-1.07
							C170.57,327.47,170.74,326.88,170.83,326.3z"/>
					</g>
				</g>
			</g>
			<g>
				<g>
					<g>
						<path class="st10" d="M160.94,331.68c-3.19-6.18-10.81-11.16-18.51-10.89c-4.85,0.17-7.85,1.77-9.99,2.62
							c-4.8,1.9-7.24,6.1-7.24,6.1c-1.67,1.47-5.22,11.63-1.85,18.77c3.74,7.94,8.62,17.48,12.69,22.7
							c8.17,10.5,17.79,7.1,17.79,7.1c-0.01-0.02,4.29,8.88,4.29,8.88l12.02,10.18l10.71-17.46l2.33-3.77L160.94,331.68z"/>
					</g>
				</g>
			</g>
			<g>
				<g>
					<g>
						<path class="st11" d="M151.39,360.16c-0.35-0.54-0.92-0.89-1.49-1.05c-1.15-0.31-2.37,0.2-2.96,1.22
							c-0.58,1.02-0.2,2.1,0.52,3.16l0,0c0.81,0.44,1.49,0.93,2.36,0.6c0.13-0.05,0.27-0.11,0.39-0.17
							c0.62-0.32,1.16-0.84,1.41-1.53C151.88,361.7,151.82,360.82,151.39,360.16z"/>
					</g>
				</g>
			</g>
			<g>
				<g>
					<g>
						<g>
							<g>
								<g>
									<g>
										<g>
											<path class="st7" d="M132.07,356.16c0.4,0.79,1.41,1.11,2.24,0.7c0.84-0.4,1.19-1.37,0.79-2.17
												c-0.4-0.79-1.41-1.11-2.24-0.71C132.03,354.39,131.67,355.36,132.07,356.16z"/>
										</g>
									</g>
								</g>
							</g>
						</g>
					</g>
				</g>
			</g>
			<g>
				<g>
					<g>
						<g>
							<g>
								<g>
									<g>
										<g>
											<g>
												<path class="st7" d="M128.42,351.24c0.29,0.09,0.95-1.35,2.54-2.22c1.58-0.89,3.19-0.72,3.26-1.01
													c0.04-0.13-0.34-0.38-1.05-0.47c-0.7-0.09-1.75,0.02-2.74,0.57c-0.99,0.55-1.62,1.37-1.89,2.01
													C128.25,350.76,128.28,351.2,128.42,351.24z"/>
											</g>
										</g>
									</g>
								</g>
							</g>
						</g>
					</g>
				</g>
			</g>
			<g>
				<g>
					<g>
						<g>
							<g>
								<g>
									<g>
										<g>
											<path class="st7" d="M144.62,358.66c-0.04-0.09-1.12,0.28-2.84,0.96c-0.43,0.18-0.86,0.31-1.08,0.07
												c-0.26-0.24-0.33-0.77-0.39-1.35c-0.16-1.19-0.33-2.44-0.5-3.75c-0.76-5.31-1.54-9.59-1.76-9.56
												c-0.21,0.03,0.23,4.37,0.98,9.68c0.2,1.3,0.38,2.55,0.56,3.74c0.1,0.55,0.12,1.21,0.67,1.71
												c0.28,0.24,0.69,0.3,0.99,0.23c0.3-0.06,0.53-0.19,0.74-0.28C143.66,359.29,144.66,358.75,144.62,358.66z"/>
										</g>
									</g>
								</g>
							</g>
						</g>
					</g>
				</g>
			</g>
			<g>
				<g>
					<g>
						<g>
							<g>
								<g>
									<g>
										<path class="st11" d="M153.82,378.08c0,0,8.07-3.79,13.2-12.63c0,0,0.37,10.37-11.74,15.64L153.82,378.08z"/>
									</g>
								</g>
							</g>
						</g>
					</g>
				</g>
			</g>
			<g>
				<g>
					<g>
						<g>
							<g>
								<g>
									<g>
										<g>
											<g>
												<g>
													<path class="st7" d="M126.27,347.9c0.48,0.24,1.55-0.69,3.04-1.35c1.46-0.71,2.87-0.94,2.99-1.46
														c0.05-0.25-0.32-0.54-1.03-0.66c-0.7-0.12-1.74-0.02-2.75,0.45c-1.01,0.47-1.75,1.2-2.11,1.81
														C126.06,347.31,126.05,347.78,126.27,347.9z"/>
												</g>
											</g>
										</g>
									</g>
								</g>
							</g>
						</g>
					</g>
				</g>
			</g>
			<g>
				<g>
					<g>
						<g>
							<g>
								<g>
									<g>
										<g>
											<path class="st7" d="M149.7,347.1c0.43,0.78,0.12,1.79-0.69,2.25c-0.81,0.46-1.81,0.2-2.23-0.58
												c-0.43-0.78-0.12-1.79,0.69-2.25C148.27,346.06,149.27,346.32,149.7,347.1z"/>
										</g>
									</g>
								</g>
							</g>
						</g>
					</g>
				</g>
			</g>
			<g>
				<g>
					<g>
						<g>
							<g>
								<g>
									<g>
										<g>
											<g>
												<path class="st7" d="M150.49,339.89c-0.09,0.29-1.65,0.02-3.27,0.84c-1.63,0.79-2.4,2.23-2.67,2.12
													c-0.13-0.04-0.12-0.49,0.21-1.13c0.32-0.63,1.01-1.43,2.02-1.94c1.01-0.5,2.05-0.56,2.73-0.42
													C150.19,339.49,150.53,339.76,150.49,339.89z"/>
											</g>
										</g>
									</g>
								</g>
							</g>
						</g>
					</g>
				</g>
			</g>
			<g>
				<g>
					<g>
						<g>
							<g>
								<g>
									<g>
										<g>
											<g>
												<g>
													<path class="st7" d="M147.12,333.63c-0.13,0.53-1.58,0.78-3.09,1.51c-1.53,0.69-2.65,1.64-3.14,1.41
														c-0.22-0.12-0.21-0.59,0.17-1.22c0.37-0.62,1.15-1.37,2.19-1.86c1.05-0.49,2.11-0.61,2.82-0.49
														C146.81,333.09,147.18,333.38,147.12,333.63z"/>
												</g>
											</g>
										</g>
									</g>
								</g>
							</g>
						</g>
					</g>
				</g>
			</g>
			<g>
				<g>
					<g>
						<g>
							<g>
								<g>
									<g>
										<path class="st10" d="M165.1,343.6c-0.47-0.86-0.59-3.42,0.18-4.02c2.07-1.6,6.24-3.66,9.44,2.06
											c4.37,7.82-4.38,10.6-4.52,10.38C170.09,351.85,166.72,346.56,165.1,343.6z"/>
									</g>
								</g>
							</g>
						</g>
					</g>
				</g>
			</g>
			<g>
				<g>
					<g>
						<g>
							<g>
								<g>
									<g>
										<g>
											<path class="st11" d="M170.76,347.95c0.02-0.04,0.19,0.02,0.48,0c0.28-0.02,0.71-0.17,1.03-0.55
												c0.66-0.77,0.62-2.47-0.13-3.9c-0.38-0.72-0.91-1.32-1.47-1.74c-0.56-0.44-1.15-0.63-1.61-0.47
												c-0.47,0.14-0.62,0.55-0.6,0.82c0.02,0.28,0.16,0.41,0.12,0.44c-0.01,0.03-0.24-0.04-0.36-0.39
												c-0.05-0.17-0.07-0.41,0.03-0.66c0.1-0.26,0.33-0.49,0.64-0.62c0.63-0.3,1.48-0.04,2.1,0.42
												c0.66,0.44,1.27,1.1,1.69,1.91c0.83,1.6,0.85,3.53-0.1,4.49c-0.47,0.45-1.02,0.54-1.36,0.49
												C170.88,348.14,170.74,347.98,170.76,347.95z"/>
										</g>
									</g>
								</g>
							</g>
						</g>
					</g>
				</g>
			</g>
			<g>
				<g>
					<g>
						<path class="st7" d="M121.66,349.34c1.04-1.86,1.31-3.77,0.18-5.58c1.22-0.27,1.55-2.21,1.66-3.45
							c0.11-1.25,0.61-2.12-0.04-3.19c-0.13-0.21-0.27-0.43-0.27-0.68c-0.01-0.39,0.31-0.69,0.58-0.97
							c1.39-1.44,1.96-3.62,1.45-5.56c2.09-0.19,4.12-0.91,5.87-2.07c1.46,0.73,3.3,0.66,4.69-0.19c1.4-0.85,2.31-2.44,2.33-4.08
							c1.01,0.72,2.38,0.79,3.58,0.48c1.2-0.31,2.29-0.97,3.35-1.61c0.69,2.37,3.35,3.97,5.77,3.47c0.33-0.07,0.7-0.16,0.97,0.03
							c0.28,0.2,0.31,0.6,0.36,0.94c0.3,2.17,2.74,3.78,4.85,3.21c-0.74,1.7,0.66,3.93,2.51,4.01c0.38,0.02,0.87,0.02,1,0.37
							c0.05,0.13,0.03,0.29,0.01,0.43c-0.16,1.1-0.27,2.27,0.19,3.27c0.46,1.01,1.72,1.74,2.71,1.24c-0.26,0.73-0.42,1.58-0.05,2.27
							c0.36,0.69,1.44,1,1.94,0.41c0.21-0.25,3.7-3.17,3.74-3.5c0.56-4.24-4.06-6.03-6.34-9.65c-2.28-3.62-5.57-6.52-9.22-8.74
							c-1.53-0.93-3.14-1.75-4.87-2.25c-1.96-0.57-4.02-0.69-6.06-0.8c-2.66-0.14-5.38-0.25-7.95,0.46
							c-4.78,1.33-8.34,5.29-11.28,9.29c-1.12,1.52-2.21,3.09-2.88,4.86c-0.81,2.11-0.99,4.41-1.01,6.67
							c-0.03,3.27,0.29,6.6,1.58,9.6"/>
					</g>
				</g>
			</g>
			<g>
				<g>
					<g>
						<path class="st8" d="M118.61,347.45c0,0-0.1-0.37-0.04-1.07c0.02-0.35,0.09-0.79,0.1-1.3c0-0.51-0.1-1.1-0.36-1.71
							c-0.26-0.61-0.66-1.24-1.1-1.92c-0.44-0.68-0.93-1.44-1.22-2.37c-0.3-0.91-0.43-1.95-0.32-3.04c0.05-0.54,0.17-1.1,0.36-1.64
							c0.18-0.55,0.46-1.08,0.73-1.6c0.27-0.53,0.54-1.08,0.63-1.68c0.09-0.6,0.01-1.24-0.07-1.89c-0.15-1.31-0.09-2.7,0.24-4.08
							c0.33-1.38,0.89-2.77,1.76-4.01c0.41-0.64,0.94-1.2,1.5-1.75c0.59-0.51,1.22-1,1.94-1.37c0.35-0.19,0.73-0.34,1.1-0.5
							c0.38-0.14,0.77-0.25,1.15-0.38c0.77-0.24,1.48-0.61,2.1-1.15c0.63-0.52,1.18-1.16,1.8-1.73c0.61-0.59,1.3-1.12,2.01-1.61
							c0.72-0.49,1.49-0.91,2.29-1.28c0.81-0.36,1.66-0.64,2.54-0.84c1.75-0.36,3.68-0.32,5.38,0.44c0.17,0.08,0.34,0.15,0.5,0.23
							l-0.15,0.02c2.08-1.85,4.91-2.57,7.51-2.34c2.62,0.22,5.11,1.39,6.74,3.3l-0.11-0.04c1.2-0.07,2.38-0.13,3.55-0.06
							c1.16,0.08,2.32,0.3,3.35,0.78c1.03,0.49,1.91,1.24,2.51,2.15c0.6,0.91,0.9,2.02,0.7,3.07l-0.08-0.13
							c1.74,0.51,3.12,1.69,4.02,3.04c0.9,1.35,1.36,2.9,1.32,4.35c0.01,0.36-0.05,0.72-0.1,1.06c-0.06,0.34-0.13,0.67-0.16,1
							c-0.02,0.32,0.02,0.64,0.14,0.92c0.12,0.29,0.3,0.54,0.47,0.8c0.68,1.04,1.2,2.06,1.55,3.03c0.34,0.97,0.51,1.89,0.47,2.69
							c-0.03,0.8-0.26,1.46-0.52,1.94c-0.26,0.49-0.56,0.79-0.68,1.04c-0.13,0.25-0.15,0.4-0.16,0.39c0,0,0-0.15,0.13-0.41
							c0.11-0.26,0.41-0.58,0.65-1.06c0.25-0.48,0.46-1.13,0.48-1.92c0.03-0.79-0.14-1.69-0.49-2.65c-0.35-0.95-0.88-1.96-1.56-2.98
							c-0.17-0.26-0.35-0.52-0.49-0.82c-0.14-0.3-0.19-0.66-0.16-1c0.02-0.34,0.1-0.68,0.15-1.02c0.04-0.34,0.1-0.68,0.09-1.04
							c0.03-1.41-0.43-2.92-1.31-4.23c-0.88-1.31-2.23-2.45-3.91-2.94l-0.1-0.03l0.02-0.1c0.18-0.98-0.1-2.03-0.68-2.9
							c-0.58-0.87-1.43-1.6-2.41-2.06c-1-0.46-2.12-0.68-3.26-0.75c-1.15-0.07-2.32-0.01-3.52,0.06l-0.06,0l-0.04-0.05
							c-1.58-1.85-4.01-2.99-6.56-3.2c-2.54-0.22-5.3,0.48-7.31,2.28l-0.07,0.06l-0.09-0.04c-0.16-0.07-0.32-0.15-0.49-0.22
							c-1.65-0.74-3.51-0.78-5.22-0.43c-0.86,0.19-1.69,0.47-2.48,0.82c-0.79,0.37-1.55,0.77-2.25,1.26c-0.7,0.49-1.38,1-1.98,1.58
							c-0.62,0.57-1.17,1.2-1.82,1.74c-0.32,0.27-0.67,0.52-1.04,0.72c-0.37,0.2-0.76,0.35-1.15,0.48
							c-0.39,0.13-0.77,0.24-1.14,0.38c-0.36,0.15-0.73,0.29-1.07,0.48c-0.7,0.35-1.31,0.83-1.89,1.32
							c-0.54,0.53-1.06,1.08-1.47,1.7c-0.86,1.21-1.41,2.57-1.74,3.93c-0.33,1.36-0.4,2.72-0.25,4.01c0.07,0.65,0.16,1.3,0.06,1.94
							c-0.1,0.64-0.38,1.21-0.66,1.74c-0.28,0.53-0.55,1.04-0.73,1.57c-0.18,0.53-0.3,1.07-0.36,1.6c-0.11,1.06,0.01,2.08,0.3,2.98
							c0.28,0.9,0.75,1.66,1.18,2.34c0.43,0.69,0.84,1.32,1.09,1.95c0.27,0.62,0.36,1.23,0.35,1.75c-0.02,0.52-0.09,0.95-0.13,1.3
							c-0.04,0.35-0.04,0.62-0.03,0.8C118.6,347.35,118.62,347.44,118.61,347.45z"/>
					</g>
				</g>
			</g>
			<g>
				<g>
					<g>
						<path class="st8" d="M136.94,311.6c0,0.02-0.27-0.01-0.76,0.02c-0.48,0.02-1.19,0.11-1.99,0.44
							c-0.79,0.32-1.69,0.89-2.38,1.79c-0.69,0.89-1.16,2.11-1.19,3.41c-0.01,0.38,0.02,0.76,0.1,1.1c0.08,0.34,0.24,0.67,0.51,0.8
							l0.34,0.16l-0.37,0.08c-1.01,0.23-1.81,0.89-2.27,1.62c-0.47,0.74-0.58,1.54-0.54,2.18c0.05,0.65,0.24,1.14,0.4,1.46
							c0.16,0.32,0.28,0.48,0.26,0.49c-0.01,0.01-0.04-0.03-0.1-0.1c-0.06-0.07-0.15-0.19-0.24-0.34c-0.19-0.31-0.42-0.82-0.49-1.49
							c-0.07-0.67,0.02-1.52,0.51-2.32c0.48-0.79,1.32-1.5,2.41-1.76l-0.03,0.25c-0.39-0.19-0.57-0.6-0.66-0.97
							c-0.08-0.38-0.11-0.77-0.1-1.17c0.02-1.37,0.53-2.64,1.26-3.56c0.73-0.94,1.67-1.51,2.5-1.82c0.83-0.31,1.56-0.37,2.05-0.37
							c0.25,0.01,0.44,0.02,0.57,0.04C136.88,311.58,136.94,311.59,136.94,311.6z"/>
					</g>
				</g>
			</g>
			<g>
				<g>
					<g>
						<path class="st8" d="M154.63,313.64c0.01,0.01-0.02,0.16-0.12,0.43c-0.1,0.27-0.27,0.66-0.55,1.1
							c-0.29,0.44-0.7,0.94-1.31,1.33c-0.6,0.38-1.42,0.64-2.27,0.48l0.16-0.12c-0.02,0.15-0.04,0.3-0.05,0.45
							c-0.03,0.15-0.07,0.3-0.1,0.46c-0.25,0.91-0.73,1.71-1.29,2.3c-0.56,0.6-1.18,1.01-1.74,1.26c-0.56,0.25-1.05,0.35-1.39,0.4
							c-0.34,0.03-0.53,0.02-0.53,0.01c-0.01-0.06,0.77-0.04,1.84-0.57c0.53-0.26,1.12-0.68,1.64-1.26c0.53-0.57,0.98-1.33,1.22-2.2
							c0.03-0.15,0.07-0.29,0.09-0.43c0.02-0.14,0.04-0.29,0.05-0.42l0.02-0.15l0.14,0.03c0.77,0.15,1.53-0.08,2.1-0.42
							c0.58-0.34,0.99-0.81,1.29-1.23C154.39,314.23,154.58,313.62,154.63,313.64z"/>
					</g>
				</g>
			</g>
			<g>
				<g>
					<g>
						<path class="st8" d="M162.77,318.66c0.01,0,0.03,0.05,0.06,0.16c0.02,0.11,0.05,0.27,0.03,0.48
							c-0.03,0.41-0.25,1.02-0.81,1.53c-0.55,0.52-1.43,0.83-2.38,0.98c-0.48,0.08-0.97,0.16-1.51,0.19
							c-0.52,0.02-1.13-0.02-1.63-0.39c-0.04-0.03-0.08-0.07-0.12-0.1l0.22-0.05c-0.43,1.01-0.93,1.95-1.56,2.67
							c-0.62,0.74-1.39,1.22-2.08,1.44c-0.69,0.23-1.3,0.21-1.7,0.13c-0.2-0.04-0.35-0.09-0.44-0.14c-0.1-0.04-0.15-0.07-0.14-0.08
							c0.01-0.02,0.21,0.06,0.6,0.11c0.38,0.05,0.96,0.04,1.62-0.2c0.66-0.23,1.37-0.7,1.96-1.42c0.6-0.71,1.08-1.63,1.5-2.62
							l0.07-0.17l0.14,0.12c0.03,0.03,0.06,0.05,0.1,0.08c0.4,0.31,0.95,0.36,1.45,0.34c0.51-0.02,1.01-0.1,1.48-0.17
							c0.94-0.14,1.76-0.42,2.29-0.88c0.54-0.46,0.77-1.02,0.83-1.4C162.82,318.88,162.74,318.66,162.77,318.66z"/>
					</g>
				</g>
			</g>
			<g>
				<g>
					<g>
						<path class="st8" d="M155.82,286c0.01,0.02-0.13,0.08-0.34,0.27c-0.2,0.19-0.45,0.53-0.57,1.05
							c-0.12,0.51-0.09,1.17,0.23,1.82c0.3,0.67,0.85,1.31,1.47,1.98l0.1,0.11l-0.13,0.07c-0.9,0.46-1.75,1.25-2.26,2.32
							c-0.52,1.06-0.6,2.42,0.02,3.57c0.53,1.06,1.53,1.82,2.58,1.99l0.38,0.06l-0.34,0.18c-1.22,0.65-1.99,1.82-2.26,2.94
							c-0.28,1.13-0.05,2.19,0.32,2.96c0.37,0.78,0.86,1.28,1.21,1.59c0.36,0.31,0.59,0.43,0.58,0.45c0,0.01-0.06-0.02-0.17-0.08
							c-0.11-0.06-0.27-0.16-0.46-0.3c-0.38-0.29-0.9-0.79-1.31-1.59c-0.4-0.78-0.67-1.89-0.39-3.09c0.27-1.18,1.06-2.41,2.36-3.12
							l0.04,0.24c-1.14-0.18-2.21-1-2.77-2.13c-0.32-0.61-0.48-1.29-0.46-1.95c0.01-0.66,0.19-1.29,0.45-1.85
							c0.54-1.12,1.45-1.94,2.39-2.41l-0.03,0.18c-0.61-0.68-1.16-1.35-1.47-2.06c-0.32-0.7-0.33-1.41-0.19-1.93
							c0.14-0.53,0.42-0.89,0.65-1.07c0.11-0.09,0.21-0.15,0.28-0.18C155.78,286.01,155.82,285.99,155.82,286z"/>
					</g>
				</g>
			</g>
			<g>
				<g>
					<g>
						<path class="st8" d="M179.16,295.34c0.01,0-0.02,0.05-0.09,0.15c-0.07,0.09-0.15,0.23-0.29,0.39
							c-0.27,0.33-0.72,0.78-1.39,1.23c-0.66,0.44-1.55,0.86-2.63,1.06c-1.07,0.21-2.35,0.17-3.6-0.28l0.17-0.11
							c-0.06,1.53-0.74,3.29-2.21,4.36c-1.56,1.13-3.72,1.1-5.05,0.06l0.2-0.12c0.1,0.65,0,1.3-0.21,1.85
							c-0.22,0.56-0.54,1.04-0.89,1.43c-0.72,0.8-1.56,1.25-2.25,1.56c-0.7,0.31-1.28,0.48-1.68,0.6c-0.4,0.11-0.62,0.16-0.62,0.15
							c0-0.01,0.21-0.09,0.59-0.23c0.39-0.14,0.96-0.33,1.64-0.66c0.67-0.33,1.48-0.79,2.16-1.56c0.66-0.76,1.21-1.89,1.01-3.11
							l-0.05-0.31l0.25,0.19c1.23,0.96,3.28,0.98,4.74-0.08c1.39-1.01,2.05-2.68,2.11-4.15l0.01-0.17l0.16,0.06
							c1.2,0.44,2.43,0.5,3.47,0.31c1.05-0.17,1.92-0.57,2.58-0.98C178.64,296.14,179.12,295.3,179.16,295.34z"/>
					</g>
				</g>
			</g>
			<g>
				<g>
					<g>
						<path class="st8" d="M177.22,311.35c0.01,0,0.02,0.07-0.01,0.19c-0.04,0.12-0.14,0.29-0.34,0.44
							c-0.39,0.29-1.04,0.56-1.89,0.66c-0.84,0.1-1.91-0.01-2.91-0.57c-0.99-0.55-1.89-1.54-2.29-2.81l-0.01-0.03l0.24,0.04
							c-0.75,1.09-1.85,1.8-2.91,2.16c-1.07,0.37-2.11,0.39-2.95,0.28c-0.84-0.11-1.49-0.34-1.92-0.53
							c-0.43-0.19-0.65-0.33-0.64-0.34c0.02-0.06,0.94,0.49,2.59,0.68c0.82,0.08,1.82,0.05,2.85-0.32c1.02-0.36,2.06-1.05,2.77-2.08
							l0.15-0.22l0.09,0.26l0.01,0.03c0.38,1.19,1.22,2.14,2.16,2.67c0.94,0.54,1.96,0.67,2.77,0.6c0.82-0.07,1.47-0.32,1.85-0.56
							C177.2,311.64,177.2,311.33,177.22,311.35z"/>
					</g>
				</g>
			</g>
			<g>
				<g>
					<g>
						<path class="st8" d="M138.81,295.69c0.06-0.02,0.06,1.13,0.97,2.61c0.45,0.73,1.15,1.51,2.13,2.08
							c0.98,0.56,2.23,0.88,3.53,0.78c0.73-0.06,1.43-0.24,2.05-0.52l0.15-0.07l0.03,0.16c0.21,1.03,0.62,1.95,1.1,2.69
							c0.49,0.74,1.03,1.33,1.54,1.75c0.25,0.21,0.49,0.4,0.71,0.53c0.22,0.13,0.44,0.16,0.59,0.09c0.16-0.07,0.24-0.18,0.26-0.27
							c0.02-0.09,0.01-0.14,0.02-0.14c0,0,0.04,0.05,0.02,0.15c-0.01,0.1-0.09,0.25-0.27,0.34c-0.18,0.1-0.45,0.07-0.69-0.06
							c-0.24-0.13-0.48-0.3-0.75-0.51c-0.53-0.41-1.11-1-1.62-1.75c-0.51-0.76-0.95-1.7-1.17-2.77l0.18,0.09
							c-0.64,0.3-1.37,0.49-2.14,0.55c-1.36,0.1-2.67-0.24-3.68-0.84c-1.02-0.61-1.72-1.44-2.17-2.2c-0.45-0.76-0.65-1.47-0.74-1.95
							c-0.04-0.24-0.06-0.43-0.07-0.56C138.8,295.76,138.8,295.69,138.81,295.69z"/>
					</g>
				</g>
			</g>
			<g>
				<g>
					<g>
						<path class="st7" d="M150.18,357.96c-0.25,0.06,0.26,1.71-0.79,3.32c-1.04,1.61-2.86,1.97-2.8,2.21
							c0.01,0.11,0.49,0.2,1.24-0.01c0.74-0.2,1.73-0.76,2.37-1.75c0.64-0.98,0.71-2.06,0.56-2.75
							C150.6,358.27,150.29,357.92,150.18,357.96z"/>
					</g>
				</g>
			</g>
		</g>
		<g>
			<g>
				<path class="st9" d="M157.91,386.28c0,0,7.05,46.68,15.57,54.86c9.12,8.75,25.5,13.06,25.5,13.06s21.81,8.62,29.39,6.74
					l13.71-47c0,0-0.61-2.71-3.72-2.82c-1.36-0.05-5.28,1.78-7.05,1.35c-7.1-1.71-23.74-27.17-23.74-27.17s-15.81-21.79-29.29-19.83
					c-9.24,1.35-13.07,5.46-16.55,14.78C160.89,382.5,159.6,384.56,157.91,386.28L157.91,386.28z"/>
			</g>
			<g>
				<polygon class="st9" points="157.91,386.28 151.76,417.41 123.34,409.33 118.44,425.92 166.52,447.64 175.98,408.28 				"/>
			</g>
			<g>
				<g>
					<path class="st7" d="M222.2,441.19c-0.13-0.05,1.96-5.88,4.67-13.02c2.71-7.14,5.02-12.88,5.16-12.83
						c0.13,0.05-1.96,5.88-4.67,13.02C224.64,435.49,222.33,441.24,222.2,441.19z"/>
				</g>
			</g>
			<g>
				<g>
					<path class="st7" d="M221.67,434.66c-0.13-0.05,1.04-3.57,2.62-7.85c1.58-4.29,2.97-7.72,3.1-7.67
						c0.13,0.05-1.04,3.56-2.62,7.85C223.19,431.27,221.8,434.71,221.67,434.66z"/>
				</g>
			</g>
			<g>
				<g>
					<path class="st7" d="M157.17,395.28c0.15,0,0.25,3.26,0.41,7.28c0.08,2.01,0.17,3.83,0.25,5.14c0.08,1.31,0.15,2.12,0.08,2.14
						c-0.07,0.01-0.27-0.79-0.44-2.1c-0.18-1.31-0.32-3.14-0.4-5.16c-0.08-2.02-0.09-3.84-0.06-5.16
						C157.04,396.1,157.1,395.28,157.17,395.28z"/>
				</g>
			</g>
			<g class="st12">
				<polygon points="141.52,436.35 152.11,431.74 157.91,411.21 153.97,436.51 146.16,438.45 				"/>
			</g>
			<g class="st12">
				<g>
					<path d="M229.92,419.37c-0.7-0.41-1.6-0.11-2.17,0.48c-0.58,0.59-0.91,1.42-1.23,2.22c-2.09,5.3-4.19,10.59-6.28,15.89
						c-0.3,0.76-0.6,1.56-0.52,2.38c0.09,0.82,0.73,1.63,1.47,1.52c0.69-0.1,1.1-0.87,1.4-1.55c2.98-6.71,5.53-13.66,7.61-20.78"/>
				</g>
			</g>
		</g>
		<g>
			<g>
				<g>
					<path class="st10" d="M79.32,413.5c0,0,3.83-5.11,6.08-6.21c1.79-0.87,12.44-2.75,13.74-2.5c1.3,0.25,24.21,5.27,24.21,5.27
						l-2.97,10.01l-1.46-0.68c0,0-4.63,2.32-8.15,1.21c-3.53-1.11-8.04-4.22-8.04-4.22l-3.15,1.18c0,0,3.46,1.08,3.72,2.52
						c0.26,1.43-1.71,1.59-1.71,1.59l-0.14,0.63c-0.25,1.1-1.33,1.81-2.44,1.58c-2.03-0.41-4.96-1.1-5.62-1.83
						c-0.27-0.3-1.66-2.85-1.66-2.85c-2.14-1.51-2.11-3.01-1.99-3.93c0.24-1.83,2.19-3.89,2.19-3.89l-3.86-0.21
						C88.05,411.17,81.82,417.55,79.32,413.5z"/>
				</g>
			</g>
			<g>
				<g>
					<path class="st10" d="M111.5,411.82c-4.65,0-9.06-0.62-12.52,0.24c-0.91,0.23-1.84,0.56-2.5,1.23
						c-0.66,0.67-0.96,1.77-0.49,2.58c0.41,0.7,1.26,1.01,2.06,1.06c0.8,0.05,1.61-0.12,2.41-0.14c1.94-0.05,3.78,0.77,5.5,1.66
						c1.72,0.9,3.41,1.91,5.31,2.31c1.89,0.41,6.34,0.05,7.65-1.38"/>
				</g>
				<g>
					<g>
						<path class="st11" d="M118.91,419.38c0.01,0.01-0.08,0.13-0.29,0.33c-0.23,0.18-0.59,0.42-1.1,0.62
							c-1.02,0.4-2.58,0.75-4.53,0.77c-0.97,0.02-2.08-0.13-3.16-0.53c-1.09-0.39-2.18-0.95-3.3-1.55c-1.13-0.59-2.3-1.21-3.6-1.61
							c-0.65-0.2-1.32-0.33-2.01-0.36c-0.69-0.04-1.39,0.08-2.15,0.13c-0.75,0.05-1.57-0.02-2.26-0.44c-0.71-0.39-1.13-1.27-1-2.04
							c0.1-0.77,0.54-1.45,1.11-1.88c0.57-0.44,1.22-0.69,1.84-0.87c2.53-0.69,4.88-0.55,6.8-0.5c1.86,0.1,3.4,0.19,4.56,0.25
							c1.08,0.06,1.67,0.09,1.67,0.13c0,0.02-0.15,0.03-0.43,0.05c-0.28,0.02-0.7,0.03-1.24,0.03c-1.08,0.01-2.64-0.05-4.57-0.08
							c-1.91-0.01-4.24-0.09-6.65,0.6c-0.59,0.18-1.18,0.42-1.67,0.8c-0.49,0.38-0.83,0.93-0.91,1.55c-0.09,0.61,0.2,1.22,0.76,1.54
							c0.55,0.33,1.25,0.41,1.96,0.36c0.71-0.04,1.45-0.17,2.2-0.13c0.74,0.03,1.46,0.18,2.14,0.39c1.36,0.42,2.56,1.07,3.68,1.67
							c2.22,1.24,4.31,2.21,6.24,2.13c1.91,0.03,3.45-0.26,4.46-0.59C118.48,419.81,118.88,419.35,118.91,419.38z"/>
					</g>
				</g>
			</g>
			<g>
				<g>
					<path class="st11" d="M96.63,410.74c0.02,0.06-0.43,0.28-1.21,0.42c-0.78,0.15-1.86,0.25-3.05,0.28
						c-2.39,0.06-4.31-0.13-4.31-0.27c0-0.15,1.93-0.19,4.29-0.25c1.18-0.03,2.25-0.07,3.02-0.13
						C96.13,410.75,96.6,410.67,96.63,410.74z"/>
				</g>
			</g>
			<g>
				<g>
					<path class="st11" d="M101.74,421.67c0.03,0.12-2.45,0.52-5.4-0.27c-2.95-0.76-4.92-2.33-4.83-2.42
						c0.08-0.14,2.12,1.19,4.96,1.92C99.31,421.66,101.74,421.5,101.74,421.67z"/>
				</g>
			</g>
			<g>
				<g>
					<path class="st11" d="M95.35,416.45c0.02-0.14,1.06-0.12,2.3,0.19c1.24,0.31,2.17,0.79,2.11,0.92
						c-0.05,0.14-1.04-0.11-2.24-0.41C96.31,416.84,95.33,416.59,95.35,416.45z"/>
				</g>
			</g>
		</g>
		<g>
			<g>
				<path class="st7" d="M48.31,424.3l25.23-12.35c0.41-0.2,0.9-0.16,1.28,0.1l27.74,17.63c0.64,0.45,0.76,1.37,0.26,1.97
					l-14.66,19.62L48.31,424.3z"/>
			</g>
			<g>
				<polygon class="st2" points="51.46,425.2 85.42,447.56 100.84,430.36 74.11,413.76 				"/>
			</g>
			<g>
				<polygon class="st0" points="64.66,418.54 93.81,438.21 85.42,447.56 51.46,425.2 				"/>
			</g>
			<g>
				<path class="st0" d="M79.56,419.12l-4.46,3.62c-0.29,0.24-0.73,0.19-0.97-0.1l0,0c-0.24-0.29-0.19-0.73,0.1-0.97l4.46-3.62
					c0.29-0.24,0.73-0.19,0.97,0.1l0,0C79.9,418.44,79.85,418.88,79.56,419.12z"/>
			</g>
			<g>
				<path class="st0" d="M81.57,420.76l-4.46,3.62c-0.3,0.24-0.73,0.2-0.97-0.1l0,0c-0.24-0.3-0.19-0.73,0.1-0.97l4.46-3.62
					c0.29-0.24,0.73-0.19,0.97,0.1l0,0C81.91,420.09,81.87,420.52,81.57,420.76z"/>
			</g>
			<g>
				<path class="st0" d="M83.73,422.68l-4.46,3.62c-0.3,0.24-0.73,0.19-0.97-0.1l0,0c-0.24-0.3-0.19-0.73,0.1-0.97l4.46-3.62
					c0.3-0.24,0.73-0.2,0.97,0.1l0,0C84.07,422.01,84.03,422.44,83.73,422.68z"/>
			</g>
			<g>
				<path class="st0" d="M84.62,425.29l-2.53,2.05c-0.29,0.24-0.73,0.19-0.97-0.1l0,0c-0.24-0.29-0.19-0.73,0.1-0.97l2.53-2.05
					c0.3-0.24,0.73-0.19,0.97,0.1l0,0C84.96,424.62,84.91,425.05,84.62,425.29z"/>
			</g>
			<g>
				<path class="st9" d="M75.81,418.51l-2.94,2.06c-0.31,0.22-0.74,0.14-0.96-0.17l0,0c-0.22-0.31-0.14-0.74,0.17-0.96l2.94-2.06
					c0.31-0.22,0.74-0.14,0.96,0.17l0,0C76.2,417.86,76.12,418.29,75.81,418.51z"/>
			</g>
			<g>
				<path class="st9" d="M90.96,428.37l-2.54,2.54c-0.27,0.27-0.7,0.27-0.97,0l0,0c-0.27-0.27-0.27-0.7,0-0.97l2.54-2.54
					c0.27-0.27,0.7-0.27,0.97,0l0,0C91.23,427.67,91.23,428.1,90.96,428.37z"/>
			</g>
			<g>
				<path class="st7" d="M88.16,451.27L88.16,451.27c-0.66,1.04-2.04,1.34-3.08,0.68L48,428.22c-1.04-0.66-1.34-2.04-0.68-3.08l0,0
					c0.66-1.04,2.04-1.34,3.08-0.68l37.09,23.73C88.52,448.86,88.82,450.23,88.16,451.27z"/>
			</g>
		</g>
		<g>
			<g>
				<g>
					<g>
						<g>
							<g>
								<g>
									<g>
										<g>
											<g>
												<path class="st8" d="M372.99,378.54l1.08-26.42c0,0,27.05-5.86,27.72-10.72l-50.98-5.85l-3.38,41.1L372.99,378.54z"/>
											</g>
										</g>
									</g>
								</g>
							</g>
						</g>
					</g>
					<g class="st13">
						<g>
							<g>
								<g>
									<g>
										<g>
											<g>
												<g>
													<path class="st2" d="M358.08,353.12c-0.97-0.35-1.57-1.51-1.26-2.5c0.31-0.98,1.49-1.6,2.46-1.27
														c0.98,0.33,1.74,1.71,1.32,2.65c-0.41,0.94-1.84,1.59-2.71,1.04"/>
												</g>
											</g>
										</g>
									</g>
								</g>
							</g>
						</g>
					</g>
					<g>
						<g>
							<g>
								<g>
									<g>
										<g>
											<g>
												<path class="st7" d="M350.81,335.54l-0.34,4.14l49.43,3.94c0,0,1.72-0.53,2.2-2.57L350.81,335.54z"/>
											</g>
										</g>
									</g>
								</g>
							</g>
						</g>
					</g>
					<g>
						<g>
							<g>
								<g>
									<g>
										<g>
											<g>
												<g>
													<path class="st7" d="M374.88,352.44c0.01-0.25-1.23-0.46-2.4-1.36c-1.19-0.87-1.74-2-1.98-1.92
														c-0.23,0.03,0.02,1.55,1.46,2.62C373.39,352.86,374.92,352.68,374.88,352.44z"/>
												</g>
											</g>
										</g>
									</g>
								</g>
							</g>
						</g>
					</g>
					<g>
						<g>
							<g>
								<g>
									<g>
										<g>
											<g>
												<g>
													<path class="st7" d="M380.42,350.64c0.08-0.24-0.97-0.75-1.74-1.87c-0.8-1.1-0.93-2.26-1.18-2.27
														c-0.23-0.06-0.52,1.39,0.46,2.77C378.93,350.66,380.39,350.87,380.42,350.64z"/>
												</g>
											</g>
										</g>
									</g>
								</g>
							</g>
						</g>
					</g>
					<g>
						<g>
							<g>
								<g>
									<g>
										<g>
											<g>
												<g>
													<path class="st7" d="M383.96,344.45c-0.22-0.07-0.67,1.15-0.13,2.57c0.53,1.42,1.66,2.05,1.78,1.85
														c0.16-0.19-0.55-0.99-0.97-2.16C384.2,345.55,384.21,344.49,383.96,344.45z"/>
												</g>
											</g>
										</g>
									</g>
								</g>
							</g>
						</g>
					</g>
					<g>
						<g>
							<g>
								<g>
									<g>
										<g>
											<g>
												<g>
													<path class="st7" d="M373.97,358.44c-0.09-0.24-1.26,0.02-2.66-0.18c-1.41-0.18-2.47-0.73-2.62-0.53
														c-0.16,0.17,0.84,1.18,2.5,1.39C372.84,359.35,374.08,358.64,373.97,358.44z"/>
												</g>
											</g>
										</g>
									</g>
								</g>
							</g>
						</g>
					</g>
				</g>
				<g class="st12">
					<g>
						<g>
							<g>
								<g>
									<g>
										<g>
											<path d="M372.99,378.54l1.08-26.42c0,0,27.05-5.86,27.72-10.72l-50.98-5.85l-3.38,41.1L372.99,378.54z"/>
										</g>
									</g>
								</g>
							</g>
						</g>
					</g>
				</g>
			</g>
			<g>
				<path class="st7" d="M377.28,359.16c-0.41,0.82-3.48,77.54-3.48,77.54l-26.41-10.42c0,0-4.67-8.72-3.85-20.66
					c0.82-11.94,7.82-48.58,7.82-48.58L377.28,359.16z"/>
			</g>
			<g>
				<g>
					<g>
						<g>
							<g>
								<g>
									<g>
										<g>
											<g>
												<path class="st8" d="M370.23,380.22l-12.77-23.16c0,0,20.09-19.03,18.15-23.54l-46.64,21.41l18.41,36.9L370.23,380.22z"
													/>
											</g>
										</g>
									</g>
								</g>
							</g>
						</g>
					</g>
					<g class="st13">
						<g>
							<g>
								<g>
									<g>
										<g>
											<g>
												<g>
													<path class="st2" d="M344.31,366.2c-1.01,0.21-2.12-0.48-2.37-1.48c-0.25-1,0.44-2.14,1.45-2.36
														c1-0.22,2.37,0.56,2.5,1.58c0.13,1.02-0.75,2.32-1.78,2.29"/>
												</g>
											</g>
										</g>
									</g>
								</g>
							</g>
						</g>
					</g>
					<g>
						<g>
							<g>
								<g>
									<g>
										<g>
											<g>
												<path class="st7" d="M328.98,354.94l1.86,3.72l44.31-22.25c0,0,1.19-1.34,0.55-3.33L328.98,354.94z"/>
											</g>
										</g>
									</g>
								</g>
							</g>
						</g>
					</g>
					<g>
						<g>
							<g>
								<g>
									<g>
										<g>
											<g>
												<g>
													<path class="st7" d="M358.33,356.92c-0.12-0.22-1.29,0.24-2.75,0.08c-1.47-0.12-2.52-0.81-2.69-0.61
														c-0.18,0.15,0.82,1.32,2.6,1.48C357.26,358.05,358.48,357.1,358.33,356.92z"/>
												</g>
											</g>
										</g>
									</g>
								</g>
							</g>
						</g>
					</g>
					<g>
						<g>
							<g>
								<g>
									<g>
										<g>
											<g>
												<g>
													<path class="st7" d="M362.13,352.51c-0.06-0.24-1.22-0.13-2.46-0.7c-1.25-0.53-1.96-1.45-2.18-1.33
														c-0.23,0.07,0.28,1.46,1.83,2.13C360.87,353.29,362.23,352.72,362.13,352.51z"/>
												</g>
											</g>
										</g>
									</g>
								</g>
							</g>
						</g>
					</g>
					<g>
						<g>
							<g>
								<g>
									<g>
										<g>
											<g>
												<g>
													<path class="st7" d="M361.95,345.38c-0.23,0.06,0.03,1.33,1.22,2.26c1.19,0.94,2.49,0.89,2.49,0.66
														c0.03-0.25-0.98-0.56-1.95-1.34C362.72,346.2,362.18,345.29,361.95,345.38z"/>
												</g>
											</g>
										</g>
									</g>
								</g>
							</g>
						</g>
					</g>
					<g>
						<g>
							<g>
								<g>
									<g>
										<g>
											<g>
												<g>
													<path class="st7" d="M360.65,362.52c-0.2-0.16-1.07,0.67-2.37,1.22c-1.3,0.58-2.49,0.65-2.51,0.9
														c-0.05,0.23,1.33,0.57,2.86-0.1C360.16,363.88,360.85,362.64,360.65,362.52z"/>
												</g>
											</g>
										</g>
									</g>
								</g>
							</g>
						</g>
					</g>
				</g>
				<g class="st12">
					<g>
						<g>
							<g>
								<g>
									<g>
										<g>
											<polygon points="367.7,375.64 365.43,371.51 343.03,383.09 344.91,386.89 											"/>
										</g>
									</g>
								</g>
							</g>
						</g>
					</g>
				</g>
			</g>
			<g>
				<g>
					<path class="st7" d="M242.08,413.94l7.38-2.35c0,0,13.59-10.91,28.82-9.47c15.23,1.44,27.58,8.6,27.58,8.6l15.85,8.69
						l40.76,10.91l-23.47-55.37l23.17-9.61c0,0,23.16,37.3,30.16,47.8c7,10.5,12.32,21.1,13.15,29.75
						c0.82,8.65-5.68,20.76-23.59,22.81c-17.91,2.06-94.56-3.06-94.56-3.06l-58.97-1.7L242.08,413.94z"/>
				</g>
				<g>
					<g>
						<path class="st8" d="M242.08,413.94c0,0-0.07,0.28-0.22,0.81c-0.15,0.54-0.38,1.33-0.67,2.38c-0.6,2.1-1.49,5.19-2.65,9.21
							c-2.33,8.04-5.73,19.79-10.03,34.64l-0.14-0.19c12.16,0.34,26.36,0.73,42.25,1.17c15.9,0.18,33.45,1.63,52.37,2.51
							c9.46,0.47,19.26,0.9,29.36,1.2c5.05,0.14,10.17,0.25,15.36,0.26c2.6-0.01,5.21,0,7.83-0.11c1.31-0.03,2.63-0.07,3.94-0.19
							c1.32-0.09,2.64-0.18,3.94-0.42c5.21-0.77,10.43-2.67,14.57-6.16c4.14-3.42,7.03-8.56,7.27-14.06
							c0.07-0.68-0.03-1.37-0.04-2.05c-0.09-0.68-0.15-1.37-0.28-2.05c-0.24-1.36-0.54-2.72-0.94-4.06
							c-0.77-2.68-1.79-5.3-2.96-7.87c-2.34-5.13-5.24-10.05-8.39-14.85c-5.45-8.25-10.61-16.53-15.73-24.65
							c-5.08-8.14-10.08-16.15-14.98-24l0.31,0.1c-7.89,3.27-15.62,6.47-23.17,9.6l0.13-0.33c8.35,19.73,16.21,38.3,23.44,55.38
							l0.18,0.42l-0.44-0.12c-14.73-3.95-28.35-7.61-40.75-10.94l-0.02-0.01l-0.02-0.01c-4.23-2.32-8.3-4.56-12.22-6.71
							c-1.97-1.06-3.86-2.17-5.76-3.12c-1.91-0.95-3.83-1.8-5.73-2.55c-7.6-2.99-14.92-4.72-21.5-5.03
							c-3.29-0.1-6.37,0.32-9.16,0.97c-2.79,0.68-5.29,1.61-7.53,2.57c-4.46,1.97-7.84,4.13-10.24,5.93l-0.01,0.01l-0.01,0
							c-2.51,0.78-4.35,1.36-5.58,1.74C242.69,413.76,242.08,413.94,242.08,413.94s0.57-0.2,1.79-0.6c1.23-0.4,3.07-0.99,5.58-1.81
							l-0.02,0.01c2.4-1.83,5.77-4.02,10.23-6.01c2.24-0.98,4.75-1.92,7.55-2.62c2.81-0.67,5.91-1.1,9.22-1.01
							c6.62,0.29,13.97,2,21.61,4.99c1.91,0.76,3.83,1.6,5.76,2.55c1.93,0.96,3.82,2.06,5.78,3.12c3.92,2.14,8,4.37,12.23,6.69
							l-0.04-0.02c12.4,3.31,26.03,6.95,40.76,10.88l-0.26,0.3c-7.25-17.08-15.12-35.64-23.49-55.36l-0.1-0.23l0.23-0.1
							c7.56-3.13,15.28-6.34,23.17-9.61l0.2-0.08l0.11,0.18c4.9,7.84,9.9,15.85,14.99,23.99c5.12,8.12,10.29,16.4,15.73,24.64
							c3.16,4.81,6.07,9.75,8.42,14.92c1.17,2.58,2.2,5.23,2.98,7.94c0.4,1.35,0.71,2.73,0.95,4.12c0.13,0.69,0.19,1.39,0.28,2.09
							c0.01,0.71,0.11,1.42,0.04,2.12c-0.25,5.67-3.23,10.93-7.46,14.43c-4.23,3.57-9.54,5.48-14.82,6.26
							c-1.32,0.25-2.65,0.33-3.98,0.43c-1.33,0.12-2.65,0.16-3.96,0.19c-2.63,0.11-5.25,0.09-7.85,0.1
							c-5.2-0.01-10.33-0.13-15.38-0.27c-10.1-0.3-19.9-0.75-29.36-1.23c-18.93-0.89-36.46-2.37-52.36-2.58
							c-15.89-0.48-30.08-0.9-42.24-1.27l-0.19-0.01l0.05-0.18c4.37-14.86,7.82-26.61,10.18-34.65c1.18-4,2.1-7.08,2.71-9.17
							c0.31-1.03,0.54-1.81,0.7-2.35C241.99,414.2,242.08,413.94,242.08,413.94z"/>
					</g>
				</g>
			</g>
			<g>
				<g>
					<path class="st8" d="M359.67,429.43c0.01-0.04,0.35,0.01,0.95,0.13c0.6,0.11,1.47,0.3,2.54,0.56c2.12,0.54,5.08,1.33,8.12,2.8
						c3.06,1.43,5.46,3.48,6.82,5.22c0.36,0.42,0.64,0.84,0.88,1.2c0.25,0.36,0.45,0.68,0.59,0.96c0.29,0.54,0.44,0.85,0.41,0.87
						c-0.09,0.05-0.73-1.15-2.16-2.79c-1.41-1.65-3.76-3.58-6.76-4.99c-2.99-1.44-5.9-2.29-7.99-2.91
						C360.96,429.86,359.65,429.5,359.67,429.43z"/>
				</g>
			</g>
		</g>
		<g>
			<g>
				<path class="st10" d="M105.15,446.86c0,0-10.45-5.94-12.49-6.06c-2.9-0.18-15.71,0.26-17.28,0.16c-1.4-0.09-1.99,1.39-1.39,2.39
					c0.59,1,2.04,2.62,6,2.52c3.96-0.1,6.24,0.59,7.23,0.99s0.71,1.61,0.71,1.61s-5.75,0.3-7.42-0.09
					c-2.29-0.54-9.88-5.69-9.88-5.69l-3.03-1.94c0,0-1.27,1.54,0.71,4.42c1.98,2.87,4.46,5.45,4.46,5.45s-2.72,1.71-0.34,4.33
					c0,0-1.75,3.3,2.23,5.22c0,0,0.88,2.31,2.6,3.68c1.21,0.97,4.27,0.79,6.15,0.9c2.14,0.13,6.83-0.33,8.38-0.66
					c4.29-0.9,7.37-1.95,7.37-1.95l9.46,0.54l0.86-16.13L105.15,446.86z"/>
			</g>
			<g>
				<g>
					<path class="st11" d="M78.8,453.97c-0.05,0.13-1.74-0.39-3.65-1.43c-1.91-1.03-3.28-2.15-3.2-2.26
						c0.09-0.12,1.56,0.79,3.44,1.8C77.28,453.1,78.86,453.83,78.8,453.97z"/>
				</g>
			</g>
			<g>
				<g>
					<path class="st11" d="M77.55,457.58c-0.04,0.13-1.42-0.17-2.95-0.98c-1.53-0.8-2.57-1.77-2.48-1.87
						c0.09-0.12,1.23,0.64,2.72,1.41C76.33,456.93,77.6,457.44,77.55,457.58z"/>
				</g>
			</g>
			<g>
				<g>
					<path class="st11" d="M77.77,461.46c-0.03,0.13-1.26-0.04-2.63-0.72c-1.36-0.68-2.24-1.56-2.15-1.67
						c0.09-0.12,1.08,0.55,2.39,1.2C76.68,460.92,77.81,461.31,77.77,461.46z"/>
				</g>
			</g>
		</g>
		<g class="st12">
			<g>
				<path d="M182.35,447.25c5.34-6.97,8.08-15.65,9.2-24.35c1.11-8.71,0.85-16.98,0.42-25.75
					C190.11,414.86,186.95,431.29,182.35,447.25z"/>
			</g>
		</g>
		<g>
			<g>
				<path class="st9" d="M192.89,386.98c0.09,0.89,0.02-1.94-0.01-0.95c-0.25,11.95-7.3,62.89-16.44,72.8
					c-6.98,7.57-72.42,4.35-72.42,4.35l0.72-17.04c0,0,1.77-0.51,13.52-1.98s35.71-7.64,35.71-7.64l8.07-53.3"/>
			</g>
			<g>
				<g>
					<path class="st7" d="M162.03,383.22c0,0-0.03,0.33-0.11,0.96c-0.09,0.65-0.22,1.58-0.39,2.8c-0.36,2.47-0.89,6.08-1.56,10.7
						c-1.38,9.28-3.37,22.6-5.79,38.87l-0.02,0.14l-0.13,0.03c-7.01,1.79-14.68,3.65-22.92,5.39c-4.12,0.86-8.38,1.7-12.81,2.29
						c-4.4,0.58-8.97,1.1-13.48,1.98l0.18-0.23c-0.23,5.43-0.47,11.18-0.71,17.04l-0.25-0.27c4.62,0.21,9.52,0.37,14.49,0.49
						c9.36,0.22,18.51,0.27,27.33,0.03c4.41-0.13,8.74-0.33,12.97-0.67c4.22-0.36,8.37-0.81,12.29-1.77
						c0.97-0.25,1.93-0.53,2.85-0.91c0.9-0.38,1.8-0.82,2.41-1.53c1.27-1.46,2.21-3.18,3.01-4.91c1.6-3.47,2.75-7.03,3.77-10.48
						c2.01-6.92,3.41-13.5,4.59-19.52c2.31-12.05,3.62-21.9,4.38-28.72c0.38-3.41,0.6-6.07,0.69-7.87c0.02-0.45,0.04-0.85,0.06-1.19
						l0-0.04c0,0.01-0.01-0.03,0.05-0.04c0.03,0.01,0.02,0.01,0.03,0.02c0.01,0.03,0,0.02,0.01,0.03l0.01,0.07l0.01,0.12
						c0,0.08,0,0.15,0.01,0.23c0,0.14,0,0.27,0,0.39c-0.02,0.23,0.03,0.41-0.05,0.53c-0.03-0.13-0.02-0.18-0.02-0.18
						c0,0,0.01,0.06,0.04,0.17c-0.02-0.1-0.01-0.29-0.02-0.51c0-0.12-0.01-0.25-0.02-0.39c0-0.07-0.01-0.15-0.01-0.23l-0.01-0.12
						l-0.01-0.06c-0.01-0.01,0,0,0.07-0.01l0,0.03c-0.01,0.35-0.02,0.74-0.03,1.19c-0.06,1.81-0.25,4.47-0.59,7.89
						c-0.7,6.83-1.96,16.7-4.22,28.77c-1.16,6.03-2.54,12.62-4.53,19.57c-1.02,3.47-2.16,7.04-3.77,10.56
						c-0.8,1.75-1.75,3.5-3.07,5.04c-0.69,0.8-1.65,1.26-2.58,1.65c-0.94,0.39-1.92,0.68-2.91,0.93c-3.97,0.98-8.13,1.43-12.36,1.8
						c-4.24,0.35-8.58,0.56-13,0.69c-8.84,0.25-17.99,0.2-27.36-0.02c-4.97-0.12-9.87-0.28-14.5-0.5l-0.26-0.01l0.01-0.26
						c0.25-5.86,0.49-11.61,0.73-17.04l0.01-0.2l0.17-0.04c2.33-0.5,4.59-0.78,6.86-1.11c2.26-0.3,4.5-0.59,6.7-0.87
						c4.4-0.58,8.66-1.42,12.77-2.27c8.23-1.72,15.91-3.57,22.91-5.33l-0.15,0.17c2.5-16.25,4.55-29.57,5.97-38.84
						c0.72-4.61,1.29-8.22,1.67-10.68c0.2-1.21,0.35-2.14,0.45-2.79C161.96,383.54,162.03,383.22,162.03,383.22z"/>
				</g>
			</g>
		</g>
	</g>
</g>
</svg>
